<svg width="21" height="21" viewBox="0 0 21 21" fill="none" xmlns="http://www.w3.org/2000/svg">
<path d="M19.0412 1.35742H2.13625C1.73032 1.35742 1.40125 1.68649 1.40125 2.09242V18.9974C1.40125 19.4034 1.73032 19.7324 2.13625 19.7324H19.0412C19.4472 19.7324 19.7762 19.4034 19.7762 18.9974V2.09242C19.7762 1.68649 19.4472 1.35742 19.0412 1.35742Z" fill="#F08705"/>
<path fill-rule="evenodd" clip-rule="evenodd" d="M11.1269 6.27483L13.0144 4.28296L19.3388 10.6036V18.5948C19.3389 18.6868 19.3208 18.7778 19.2857 18.8628C19.2505 18.9478 19.199 19.025 19.1339 19.09C19.0689 19.155 18.9917 19.2066 18.9068 19.2417C18.8218 19.2769 18.7307 19.2949 18.6388 19.2948H7.66128L4.29565 15.9155L11.1269 6.27483Z" fill="#DF6C0C"/>
<path d="M16.3638 11.7698H14.305L12.3856 8.44482H12.5106C12.6026 8.44491 12.6937 8.42686 12.7786 8.39171C12.8636 8.35656 12.9408 8.305 13.0058 8.23998C13.0708 8.17497 13.1224 8.09777 13.1575 8.0128C13.1927 7.92784 13.2107 7.83677 13.2106 7.74482V4.76982C13.2107 4.67788 13.1927 4.58681 13.1575 4.50185C13.1224 4.41688 13.0708 4.33968 13.0058 4.27467C12.9408 4.20965 12.8636 4.15809 12.7786 4.12294C12.6937 4.08779 12.6026 4.06974 12.5106 4.06982H8.66377C8.57182 4.06974 8.48076 4.08779 8.39579 4.12294C8.31083 4.15809 8.23363 4.20965 8.16861 4.27467C8.10359 4.33968 8.05204 4.41688 8.01689 4.50185C7.98174 4.58681 7.96369 4.67788 7.96377 4.76982V7.74482C7.96369 7.83677 7.98174 7.92784 8.01689 8.0128C8.05204 8.09777 8.10359 8.17497 8.16861 8.23998C8.23363 8.305 8.31083 8.35656 8.39579 8.39171C8.48076 8.42686 8.57182 8.44491 8.66377 8.44482H8.79189L6.87252 11.7698H4.81377C4.72182 11.7697 4.63076 11.7878 4.54579 11.8229C4.46083 11.8581 4.38363 11.9096 4.31861 11.9747C4.25359 12.0397 4.20204 12.1169 4.16689 12.2018C4.13174 12.2868 4.11369 12.3779 4.11377 12.4698V15.4448C4.11369 15.5368 4.13174 15.6278 4.16689 15.7128C4.20204 15.7978 4.25359 15.875 4.31861 15.94C4.38363 16.005 4.46083 16.0566 4.54579 16.0917C4.63076 16.1269 4.72182 16.1449 4.81377 16.1448H8.66377C8.75572 16.1449 8.84678 16.1269 8.93174 16.0917C9.01671 16.0566 9.09391 16.005 9.15893 15.94C9.22394 15.875 9.2755 15.7978 9.31065 15.7128C9.3458 15.6278 9.36385 15.5368 9.36377 15.4448V12.4698C9.36385 12.3779 9.3458 12.2868 9.31065 12.2018C9.2755 12.1169 9.22394 12.0397 9.15893 11.9747C9.09391 11.9096 9.01671 11.8581 8.93174 11.8229C8.84678 11.7878 8.75572 11.7697 8.66377 11.7698H8.08439L10.0044 8.44482H11.1731L13.0925 11.7698H12.5138C12.4218 11.7697 12.3308 11.7878 12.2458 11.8229C12.1608 11.8581 12.0836 11.9096 12.0186 11.9747C11.9536 12.0397 11.902 12.1169 11.8669 12.2018C11.8317 12.2868 11.8137 12.3779 11.8138 12.4698V15.4448C11.8137 15.5368 11.8317 15.6278 11.8669 15.7128C11.902 15.7978 11.9536 15.875 12.0186 15.94C12.0836 16.005 12.1608 16.0566 12.2458 16.0917C12.3308 16.1269 12.4218 16.1449 12.5138 16.1448H16.3638C16.4557 16.1449 16.5468 16.1269 16.6317 16.0917C16.7167 16.0566 16.7939 16.005 16.8589 15.94C16.9239 15.875 16.9755 15.7978 17.0107 15.7128C17.0458 15.6278 17.0639 15.5368 17.0638 15.4448V12.4698C17.0639 12.3779 17.0458 12.2868 17.0107 12.2018C16.9755 12.1169 16.9239 12.0397 16.8589 11.9747C16.7939 11.9096 16.7167 11.8581 16.6317 11.8229C16.5468 11.7878 16.4557 11.7697 16.3638 11.7698Z" fill="white"/>
</svg>
