<svg width="20" height="20" viewBox="0 0 20 20" fill="none" xmlns="http://www.w3.org/2000/svg">
<g clip-path="url(#clip0_501_842)">
<path d="M14.1666 11.6667C14.1666 11.8877 14.0788 12.0997 13.9225 12.2559C13.7663 12.4122 13.5543 12.5 13.3333 12.5H6.66663C6.44561 12.5 6.23365 12.4122 6.07737 12.2559C5.92109 12.0997 5.83329 11.8877 5.83329 11.6667C5.83329 11.4457 5.92109 11.2337 6.07737 11.0774C6.23365 10.9211 6.44561 10.8334 6.66663 10.8334H13.3333C13.5543 10.8334 13.7663 10.9211 13.9225 11.0774C14.0788 11.2337 14.1666 11.4457 14.1666 11.6667ZM10.8333 14.1667H6.66663C6.44561 14.1667 6.23365 14.2545 6.07737 14.4108C5.92109 14.567 5.83329 14.779 5.83329 15C5.83329 15.221 5.92109 15.433 6.07737 15.5893C6.23365 15.7456 6.44561 15.8334 6.66663 15.8334H10.8333C11.0543 15.8334 11.2663 15.7456 11.4225 15.5893C11.5788 15.433 11.6666 15.221 11.6666 15C11.6666 14.779 11.5788 14.567 11.4225 14.4108C11.2663 14.2545 11.0543 14.1667 10.8333 14.1667ZM18.3333 8.73752V15.8334C18.332 16.938 17.8926 17.9971 17.1114 18.7782C16.3303 19.5593 15.2713 19.9987 14.1666 20H5.83329C4.72863 19.9987 3.66959 19.5593 2.88848 18.7782C2.10736 17.9971 1.66795 16.938 1.66663 15.8334V4.16669C1.66795 3.06202 2.10736 2.00298 2.88848 1.22187C3.66959 0.440754 4.72863 0.00134242 5.83329 1.92072e-05H9.59579C10.3621 -0.00195323 11.1213 0.148009 11.8293 0.441235C12.5373 0.734461 13.1802 1.16513 13.7208 1.70835L16.6241 4.61335C17.1677 5.15355 17.5986 5.79623 17.892 6.50416C18.1854 7.2121 18.3354 7.9712 18.3333 8.73752ZM12.5425 2.88669C12.2802 2.63265 11.9857 2.41412 11.6666 2.23669V5.83335C11.6666 6.05437 11.7544 6.26633 11.9107 6.42261C12.067 6.57889 12.2789 6.66669 12.5 6.66669H16.0966C15.9191 6.34768 15.7003 6.05347 15.4458 5.79169L12.5425 2.88669ZM16.6666 8.73752C16.6666 8.60002 16.64 8.46835 16.6275 8.33335H12.5C11.8369 8.33335 11.201 8.06996 10.7322 7.60112C10.2634 7.13228 9.99996 6.49639 9.99996 5.83335V1.70585C9.86496 1.69335 9.73246 1.66669 9.59579 1.66669H5.83329C5.17025 1.66669 4.53437 1.93008 4.06553 2.39892C3.59668 2.86776 3.33329 3.50364 3.33329 4.16669V15.8334C3.33329 16.4964 3.59668 17.1323 4.06553 17.6011C4.53437 18.07 5.17025 18.3334 5.83329 18.3334H14.1666C14.8297 18.3334 15.4656 18.07 15.9344 17.6011C16.4032 17.1323 16.6666 16.4964 16.6666 15.8334V8.73752Z" fill="white"/>
</g>
<defs>
<clipPath id="clip0_501_842">
<rect width="20" height="20" fill="white"/>
</clipPath>
</defs>
</svg>
