<svg width="17" height="16" viewBox="0 0 17 16" fill="none" xmlns="http://www.w3.org/2000/svg">
<path fill-rule="evenodd" clip-rule="evenodd" d="M4.02298 15.7017V5.45432H0.607203V15.7017H4.02298ZM2.33519 4.04782C3.54076 4.04782 4.2641 3.2441 4.2641 2.27965C4.22391 1.275 3.54076 0.511475 2.37537 0.511475C1.20999 0.511475 0.44646 1.275 0.44646 2.27965C0.406274 3.2441 1.1698 4.04782 2.33519 4.04782Z" fill="black"/>
<path fill-rule="evenodd" clip-rule="evenodd" d="M6.26416 15.7016H9.67994V9.95505C9.67994 9.63356 9.72012 9.35226 9.80049 9.11115C10.0416 8.50836 10.6042 7.86539 11.5285 7.86539C12.7742 7.86539 13.2565 8.78966 13.2565 10.1962V15.6614H16.6722V9.83449C16.6722 6.70001 14.9844 5.21313 12.7341 5.21313C10.8855 5.21313 10.0818 6.25796 9.63975 6.94112H9.67994V5.45425H6.26416C6.30435 6.41871 6.26416 15.7016 6.26416 15.7016Z" fill="black"/>
</svg>
