<svg width="67" height="67" viewBox="0 0 67 67" fill="none" xmlns="http://www.w3.org/2000/svg">
<path d="M64.0988 0.439938H3.26834C1.80765 0.439938 0.623535 1.62406 0.623535 3.08474V63.9153C0.623535 65.3759 1.80765 66.5601 3.26834 66.5601H64.0988C65.5595 66.5601 66.7436 65.3759 66.7436 63.9153V3.08474C66.7436 1.62406 65.5595 0.439938 64.0988 0.439938Z" fill="#F08705"/>
<path fill-rule="evenodd" clip-rule="evenodd" d="M35.656 17.847L42.5753 10.5451L65.7595 33.7155V63.0102C65.7598 63.3473 65.6936 63.6811 65.5647 63.9926C65.4359 64.3041 65.2469 64.5871 65.0085 64.8254C64.7702 65.0637 64.4872 65.2527 64.1757 65.3816C63.8643 65.5105 63.5304 65.5766 63.1934 65.5763H22.9516L10.6138 53.1881L35.656 17.847Z" fill="#DF6C0C"/>
<path d="M54.8538 37.9909H47.3068L40.2706 25.8019H40.7289C41.0659 25.8022 41.3998 25.7361 41.7112 25.6072C42.0227 25.4784 42.3057 25.2894 42.544 25.051C42.7824 24.8127 42.9714 24.5297 43.1002 24.2182C43.2291 23.9067 43.2953 23.5729 43.295 23.2359V12.33C43.2953 11.9929 43.2291 11.6591 43.1002 11.3476C42.9714 11.0361 42.7824 10.7531 42.544 10.5148C42.3057 10.2765 42.0227 10.0875 41.7112 9.9586C41.3998 9.82975 41.0659 9.76358 40.7289 9.76388H26.6268C26.2898 9.76358 25.956 9.82975 25.6445 9.9586C25.333 10.0875 25.05 10.2765 24.8117 10.5148C24.5733 10.7531 24.3843 11.0361 24.2555 11.3476C24.1266 11.6591 24.0605 11.9929 24.0608 12.33V23.2359C24.0605 23.5729 24.1266 23.9067 24.2555 24.2182C24.3843 24.5297 24.5733 24.8127 24.8117 25.051C25.05 25.2894 25.333 25.4784 25.6445 25.6072C25.956 25.7361 26.2898 25.8022 26.6268 25.8019H27.0965L20.0604 37.9909H12.5134C12.1763 37.9906 11.8425 38.0567 11.531 38.1856C11.2195 38.3144 10.9365 38.5034 10.6982 38.7418C10.4598 38.9801 10.2708 39.2631 10.142 39.5746C10.0131 39.8861 9.94697 40.2199 9.94727 40.557V51.4628C9.94697 51.7999 10.0131 52.1337 10.142 52.4452C10.2708 52.7567 10.4598 53.0397 10.6982 53.278C10.9365 53.5164 11.2195 53.7054 11.531 53.8342C11.8425 53.9631 12.1763 54.0292 12.5134 54.0289H26.6268C26.9639 54.0292 27.2977 53.9631 27.6092 53.8342C27.9207 53.7054 28.2037 53.5164 28.442 53.278C28.6804 53.0397 28.8694 52.7567 28.9982 52.4452C29.1271 52.1337 29.1932 51.7999 29.1929 51.4628V40.557C29.1932 40.2199 29.1271 39.8861 28.9982 39.5746C28.8694 39.2631 28.6804 38.9801 28.442 38.7418C28.2037 38.5034 27.9207 38.3144 27.6092 38.1856C27.2977 38.0567 26.9639 37.9906 26.6268 37.9909H24.5029L31.5414 25.8019H35.8258L42.8619 37.9909H40.7403C40.4033 37.9906 40.0694 38.0567 39.758 38.1856C39.4465 38.3144 39.1635 38.5034 38.9252 38.7418C38.6868 38.9801 38.4978 39.2631 38.369 39.5746C38.2401 39.8861 38.1739 40.2199 38.1742 40.557V51.4628C38.1739 51.7999 38.2401 52.1337 38.369 52.4452C38.4978 52.7567 38.6868 53.0397 38.9252 53.278C39.1635 53.5164 39.4465 53.7054 39.758 53.8342C40.0694 53.9631 40.4033 54.0292 40.7403 54.0289H54.8538C55.1909 54.0292 55.5247 53.9631 55.8362 53.8342C56.1476 53.7054 56.4306 53.5164 56.669 53.278C56.9073 53.0397 57.0963 52.7567 57.2252 52.4452C57.354 52.1337 57.4202 51.7999 57.4199 51.4628V40.557C57.4202 40.2199 57.354 39.8861 57.2252 39.5746C57.0963 39.2631 56.9073 38.9801 56.669 38.7418C56.4306 38.5034 56.1476 38.3144 55.8362 38.1856C55.5247 38.0567 55.1909 37.9906 54.8538 37.9909Z" fill="white"/>
</svg>
