<svg width="631" height="174" viewBox="0 0 631 174" fill="none" xmlns="http://www.w3.org/2000/svg">
<path d="M5.2168 28.7335L27.0674 6.88293" stroke="black" stroke-width="7" stroke-linecap="round"/>
<path d="M5.89893 6.88293L27.0673 28.7335" stroke="black" stroke-width="7" stroke-linecap="round"/>
<path d="M16.1421 17.8082H515.714C534.455 17.8082 549.649 33.0015 549.649 51.7432V51.7432C549.649 70.485 534.455 85.6783 515.714 85.6783H130.756C111.639 85.6783 96.1421 101.175 96.1421 120.292V120.292C96.1421 139.409 111.639 154.906 130.756 154.906H622.964" stroke="#C9C9C9" stroke-width="5" stroke-dasharray="1 10"/>
<path d="M624.584 154.905L611.343 141.596" stroke="#C9C9C9" stroke-width="7" stroke-linecap="round"/>
<path d="M624.584 154.905L611.343 168.215" stroke="#C9C9C9" stroke-width="7" stroke-linecap="round"/>
<path d="M152.964 158.406C154.897 158.406 156.464 156.839 156.464 154.906C156.464 152.973 154.897 151.406 152.964 151.406V158.406ZM16.1421 21.3082H515.714V14.3082H16.1421V21.3082ZM515.714 82.1783H130.756V89.1783H515.714V82.1783ZM130.756 158.406H152.964V151.406H130.756V158.406ZM92.6421 120.292C92.6421 141.342 109.706 158.406 130.756 158.406V151.406C113.572 151.406 99.6421 137.476 99.6421 120.292H92.6421ZM130.756 82.1783C109.706 82.1783 92.6421 99.2424 92.6421 120.292H99.6421C99.6421 103.108 113.572 89.1783 130.756 89.1783V82.1783ZM546.149 51.7432C546.149 68.552 532.522 82.1783 515.714 82.1783V89.1783C536.388 89.1783 553.149 72.418 553.149 51.7432H546.149ZM515.714 21.3082C532.522 21.3082 546.149 34.9345 546.149 51.7432H553.149C553.149 31.0685 536.388 14.3082 515.714 14.3082V21.3082Z" fill="black"/>
<circle cx="386.133" cy="154.905" r="12.5" fill="#C9C9C9"/>
<circle cx="208.423" cy="154.905" r="12.5" fill="#C9C9C9"/>
<circle cx="118.896" cy="17.8082" r="12.5" fill="#00D47B"/>
<circle cx="295.396" cy="17.8082" r="12.5" fill="#E09EFF"/>
<circle cx="471.896" cy="17.8082" r="12.5" fill="#FFC60B"/>
</svg>
