<svg width="70" height="71" viewBox="0 0 70 71" fill="none" xmlns="http://www.w3.org/2000/svg">
<path d="M9.29541 7.80292C9.29541 6.61942 10.2549 5.65998 11.4384 5.65998H58.4972C59.6808 5.65998 60.6402 6.61942 60.6402 7.80292V43.8311H9.29541V7.80292Z" fill="url(#paint0_linear_520_1720)"/>
<path d="M9.29541 7.80292C9.29541 6.61942 10.2549 5.65998 11.4384 5.65998H58.4972C59.6808 5.65998 60.6402 6.61942 60.6402 7.80292V43.8311H9.29541V7.80292Z" fill="url(#paint1_linear_520_1720)"/>
<path d="M11.4048 8.23817C11.4048 7.9423 11.6446 7.70246 11.9405 7.70246H57.9948C58.2907 7.70246 58.5305 7.9423 58.5305 8.23819V41.2529C58.5305 41.5489 58.2907 41.7887 57.9948 41.7887H11.9405C11.6446 41.7887 11.4048 41.5489 11.4048 41.2529V8.23817Z" fill="url(#paint2_linear_520_1720)"/>
<path d="M9.29539 43.8312H60.6401L64.6472 61.5975C65.0012 62.783 63.8546 63.4276 62.6909 63.4276H7.50165C5.65167 63.4276 5.12186 62.5381 5.33093 61.601L9.29539 43.8312Z" fill="url(#paint3_linear_520_1720)"/>
<path d="M5.28982 62.0462L5.28809 63.8795C5.32074 64.6383 5.94383 65.2692 7.50162 65.2692H62.6909C63.7011 65.2692 64.6987 64.7834 64.7126 63.8795V62.0462C64.6927 62.9448 63.6979 63.4276 62.6909 63.4276H7.50162C5.94955 63.4276 5.3267 62.8014 5.28982 62.0462Z" fill="url(#paint4_linear_520_1720)"/>
<path d="M5.28982 62.0462L5.28809 63.8795C5.32074 64.6383 5.94383 65.2692 7.50162 65.2692H62.6909C63.7011 65.2692 64.6987 64.7834 64.7126 63.8795V62.0462C64.6927 62.9448 63.6979 63.4276 62.6909 63.4276H7.50162C5.94955 63.4276 5.3267 62.8014 5.28982 62.0462Z" fill="url(#paint5_linear_520_1720)"/>
<path d="M5.28982 62.0462L5.28809 63.8795C5.32074 64.6383 5.94383 65.2692 7.50162 65.2692H62.6909C63.7011 65.2692 64.6987 64.7834 64.7126 63.8795V62.0462C64.6927 62.9448 63.6979 63.4276 62.6909 63.4276H7.50162C5.94955 63.4276 5.3267 62.8014 5.28982 62.0462Z" fill="url(#paint6_linear_520_1720)"/>
<path d="M24.1706 57.5207C24.2212 57.2706 24.4408 57.0908 24.6958 57.0908H45.2666C45.521 57.0908 45.7402 57.2695 45.7914 57.5185L46.4587 60.7666C46.5269 61.0988 46.2732 61.4101 45.9339 61.4101H24.0411C23.7028 61.4101 23.4493 61.1003 23.5161 60.7685L24.1706 57.5207Z" stroke="url(#paint7_linear_520_1720)" stroke-width="0.321442"/>
<path d="M24.1706 57.5207C24.2212 57.2706 24.4408 57.0908 24.6958 57.0908H45.2666C45.521 57.0908 45.7402 57.2695 45.7914 57.5185L46.4587 60.7666C46.5269 61.0988 46.2732 61.4101 45.9339 61.4101H24.0411C23.7028 61.4101 23.4493 61.1003 23.5161 60.7685L24.1706 57.5207Z" fill="url(#paint8_linear_520_1720)"/>
<path d="M11.1621 46.7052C11.252 46.3165 11.5982 46.0411 11.9972 46.0411H58.0584C58.4598 46.0411 58.8074 46.3195 58.895 46.7112L60.558 54.1485C60.6327 54.4835 60.277 54.8013 59.6073 54.8013H10.42C9.54109 54.8013 9.37128 54.4464 9.44892 54.1106L11.1621 46.7052Z" stroke="url(#paint9_linear_520_1720)" stroke-width="0.321442"/>
<path d="M11.1621 46.7052C11.252 46.3165 11.5982 46.0411 11.9972 46.0411H58.0584C58.4598 46.0411 58.8074 46.3195 58.895 46.7112L60.558 54.1485C60.6327 54.4835 60.277 54.8013 59.6073 54.8013H10.42C9.54109 54.8013 9.37128 54.4464 9.44892 54.1106L11.1621 46.7052Z" fill="url(#paint10_linear_520_1720)"/>
<path d="M13.0251 47.0446C13.0366 46.9962 13.0797 46.9621 13.1294 46.9621H15.2607C15.3273 46.9621 15.3778 47.0223 15.3662 47.0879L15.128 48.4306C15.1189 48.4819 15.0744 48.5191 15.0225 48.5191H12.8118C12.7426 48.5191 12.6916 48.4544 12.7075 48.3871L13.0251 47.0446Z" fill="#D7D3E6"/>
<path d="M56.9105 47.0446C56.8992 46.9962 56.8559 46.9621 56.8062 46.9621H54.675C54.6084 46.9621 54.5578 47.0223 54.5696 47.0879L54.8077 48.4306C54.8169 48.4819 54.8612 48.5191 54.9133 48.5191H57.124C57.193 48.5191 57.244 48.4544 57.2281 48.3871L56.9105 47.0446Z" fill="#D7D3E6"/>
<path d="M12.5397 49.4819C12.5506 49.4329 12.5941 49.3979 12.6444 49.3979H14.7763C14.8423 49.3979 14.8926 49.4571 14.8821 49.5222L14.6655 50.8648C14.6571 50.9168 14.6123 50.955 14.5598 50.955H12.3484C12.2799 50.955 12.229 50.8916 12.2438 50.8247L12.5397 49.4819Z" fill="#D7D3E6"/>
<path d="M57.3951 49.4819C57.3842 49.4329 57.3407 49.3979 57.2903 49.3979H55.1585C55.0925 49.3979 55.0422 49.4571 55.0527 49.5222L55.2693 50.8648C55.2777 50.9168 55.3225 50.955 55.375 50.955H57.5865C57.6548 50.955 57.7058 50.8916 57.6911 50.8247L57.3951 49.4819Z" fill="#D7D3E6"/>
<path d="M12.0047 51.9607C12.0152 51.9112 12.0589 51.8758 12.1095 51.8758H14.3168C14.3825 51.8758 14.4328 51.9343 14.4227 51.9992L14.2048 53.4005C14.1967 53.4528 14.1518 53.4914 14.099 53.4914H11.8118C11.7437 53.4914 11.6928 53.4286 11.707 53.3619L12.0047 51.9607Z" fill="#D7D3E6"/>
<path d="M57.9305 51.9607C57.92 51.9112 57.8762 51.8758 57.8257 51.8758H55.6184C55.5526 51.8758 55.5023 51.9343 55.5126 51.9992L55.7303 53.4005C55.7384 53.4528 55.7834 53.4914 55.8362 53.4914H58.1233C58.1915 53.4914 58.2423 53.4286 58.2281 53.3619L57.9305 51.9607Z" fill="#D7D3E6"/>
<path d="M16.8097 47.0467C16.8204 46.9972 16.864 46.9621 16.9145 46.9621H19.0466C19.1124 46.9621 19.1626 47.0208 19.1525 47.0857L18.9432 48.4285C18.935 48.4806 18.8901 48.5191 18.8373 48.5191H16.6257C16.5575 48.5191 16.5066 48.4561 16.521 48.3893L16.8097 47.0467Z" fill="#D7D3E6"/>
<path d="M53.1254 47.0467C53.1147 46.9972 53.0712 46.9621 53.0206 46.9621H50.8884C50.8226 46.9621 50.7725 47.0208 50.7825 47.0857L50.9919 48.4285C51 48.4806 51.045 48.5191 51.0978 48.5191H53.3093C53.3777 48.5191 53.4284 48.4561 53.4141 48.3893L53.1254 47.0467Z" fill="#D7D3E6"/>
<path d="M16.3998 49.4839C16.4099 49.4339 16.4538 49.3979 16.5049 49.3979H18.6377C18.7029 49.3979 18.7529 49.4556 18.7438 49.5201L18.5605 50.8249C18.5531 50.8778 18.5078 50.9173 18.4544 50.9173H16.2424C16.1748 50.9173 16.124 50.8553 16.1374 50.7889L16.3998 49.4839Z" fill="#D7D3E6"/>
<path d="M53.535 49.4839C53.5249 49.4339 53.481 49.3979 53.43 49.3979H51.2971C51.232 49.3979 51.1818 49.4556 51.191 49.5201L51.3743 50.8249C51.3818 50.8778 51.427 50.9173 51.4803 50.9173H53.6923C53.76 50.9173 53.8108 50.8553 53.7975 50.7889L53.535 49.4839Z" fill="#D7D3E6"/>
<path d="M15.9424 51.9656C15.9509 51.9137 15.9957 51.8758 16.0482 51.8758H18.2573C18.3209 51.8758 18.3705 51.9309 18.3638 51.9941L18.2189 53.3787C18.2131 53.4331 18.1672 53.4744 18.1123 53.4744H15.8235C15.7574 53.4744 15.7071 53.4155 15.7177 53.3502L15.9424 51.9656Z" fill="#D7D3E6"/>
<path d="M53.9927 51.9656C53.9844 51.9137 53.9396 51.8758 53.8871 51.8758H51.6779C51.6143 51.8758 51.5648 51.9309 51.5714 51.9941L51.7163 53.3787C51.722 53.4331 51.7681 53.4744 51.823 53.4744H54.1117C54.1777 53.4744 54.228 53.4155 54.2175 53.3502L53.9927 51.9656Z" fill="#D7D3E6"/>
<path d="M20.5573 47.0532C20.5652 47.0009 20.6102 46.9621 20.6632 46.9621H22.7974C22.8604 46.9621 22.9099 47.0163 22.9041 47.0791L22.7804 48.4216C22.7755 48.4769 22.7292 48.5191 22.6737 48.5191H20.4602C20.3946 48.5191 20.3444 48.4606 20.3543 48.3959L20.5573 47.0532Z" fill="#D7D3E6"/>
<path d="M49.3782 47.0532C49.3703 47.0009 49.3252 46.9621 49.2721 46.9621H47.1379C47.0749 46.9621 47.0254 47.0163 47.0312 47.0791L47.1549 48.4216C47.16 48.4769 47.2061 48.5191 47.2616 48.5191H49.4753C49.5406 48.5191 49.591 48.4606 49.5811 48.3959L49.3782 47.0532Z" fill="#D7D3E6"/>
<path d="M24.3021 47.0587C24.3075 47.0039 24.3538 46.9621 24.4088 46.9621H26.5441C26.6049 46.9621 26.6536 47.0127 26.6512 47.0733L26.5998 48.4077C26.5976 48.4651 26.5503 48.5106 26.4928 48.5106H24.2781C24.2149 48.5106 24.1654 48.4561 24.1714 48.3931L24.3021 47.0587Z" fill="#D7D3E6"/>
<path d="M45.6329 47.0587C45.6275 47.0039 45.5814 46.9621 45.5262 46.9621H43.3909C43.3301 46.9621 43.2814 47.0127 43.2838 47.0733L43.3352 48.4077C43.3373 48.4651 43.3847 48.5106 43.4424 48.5106H45.6569C45.7203 48.5106 45.7698 48.4561 45.7636 48.3931L45.6329 47.0587Z" fill="#D7D3E6"/>
<path d="M28.1047 47.0617C28.1087 47.0056 28.1554 46.9621 28.2116 46.9621H30.3472C30.4068 46.9621 30.455 47.0107 30.4544 47.0703L30.44 48.4047C30.4394 48.4634 30.3916 48.5106 30.3329 48.5106H28.1179C28.0558 48.5106 28.0067 48.4581 28.011 48.3959L28.1047 47.0617Z" fill="#D7D3E6"/>
<path d="M41.8307 47.0617C41.8266 47.0056 41.7799 46.9621 41.7238 46.9621H39.5881C39.5285 46.9621 39.4803 47.0107 39.481 47.0703L39.4953 48.4047C39.496 48.4634 39.5438 48.5106 39.6025 48.5106H41.8174C41.8796 48.5106 41.9286 48.4581 41.9244 48.3959L41.8307 47.0617Z" fill="#D7D3E6"/>
<path d="M31.9121 47.0692C31.9121 47.0101 31.9601 46.9621 32.0193 46.9621H34.1489C34.2081 46.9621 34.2561 47.0101 34.2561 47.0692V48.4034C34.2561 48.4628 34.2081 48.5106 34.1489 48.5106H32.0193C31.9601 48.5106 31.9121 48.4628 31.9121 48.4034V47.0692Z" fill="#D7D3E6"/>
<path d="M31.9121 49.4924C31.9121 49.4332 31.9601 49.3852 32.0193 49.3852H34.1489C34.2081 49.3852 34.2561 49.4332 34.2561 49.4924V50.8268C34.2561 50.8859 34.2081 50.9339 34.1489 50.9339H32.0193C31.9601 50.9339 31.9121 50.8859 31.9121 50.8268V49.4924Z" fill="#D7D3E6"/>
<path d="M35.6963 47.0692C35.6963 47.0101 35.7443 46.9621 35.8034 46.9621H37.9329C37.992 46.9621 38.04 47.0101 38.04 47.0692V48.4034C38.04 48.4628 37.992 48.5106 37.9329 48.5106H35.8034C35.7443 48.5106 35.6963 48.4628 35.6963 48.4034V47.0692Z" fill="#D7D3E6"/>
<path d="M35.6963 49.4924C35.6963 49.4332 35.7443 49.3852 35.8034 49.3852H37.9329C37.992 49.3852 38.04 49.4332 38.04 49.4924V50.8268C38.04 50.8859 37.992 50.9339 37.9329 50.9339H35.8034C35.7443 50.9339 35.6963 50.8859 35.6963 50.8268V49.4924Z" fill="#D7D3E6"/>
<path d="M24.1171 49.4952C24.1222 49.4401 24.1683 49.3979 24.2238 49.3979H26.3593C26.4197 49.3979 26.4683 49.4481 26.4664 49.5085L26.424 50.8178C26.422 50.8755 26.3747 50.9213 26.3168 50.9213H24.1023C24.0391 50.9213 23.9898 50.8671 23.9956 50.8043L24.1171 49.4952Z" fill="#D7D3E6"/>
<path d="M45.8181 49.4952C45.813 49.4401 45.7667 49.3979 45.7114 49.3979H43.5757C43.5153 49.3979 43.4669 49.4481 43.4688 49.5085L43.511 50.8178C43.5129 50.8755 43.5603 50.9213 43.6182 50.9213H45.8327C45.8959 50.9213 45.9454 50.8671 45.9394 50.8043L45.8181 49.4952Z" fill="#D7D3E6"/>
<path d="M20.2635 49.4911C20.2705 49.4378 20.3159 49.3979 20.3697 49.3979H22.5045C22.5666 49.3979 22.6159 49.4506 22.6114 49.5126L22.5189 50.8176C22.5148 50.8738 22.4681 50.9173 22.4119 50.9173H20.198C20.1333 50.9173 20.0833 50.8603 20.0918 50.7962L20.2635 49.4911Z" fill="#D7D3E6"/>
<path d="M49.672 49.4911C49.6649 49.4378 49.6195 49.3979 49.5657 49.3979H47.4309C47.3688 49.3979 47.3197 49.4506 47.324 49.5126L47.4166 50.8176C47.4206 50.8738 47.4674 50.9173 47.5235 50.9173H49.7376C49.8023 50.9173 49.8522 50.8603 49.8437 50.7962L49.672 49.4911Z" fill="#D7D3E6"/>
<path d="M27.9958 49.4986C27.9992 49.4421 28.0461 49.3979 28.1027 49.3979H30.2386C30.2977 49.3979 30.3457 49.4459 30.3457 49.5051V50.8142C30.3457 50.8736 30.2977 50.9213 30.2386 50.9213H28.0236C27.9619 50.9213 27.9131 50.8695 27.9167 50.8078L27.9958 49.4986Z" fill="#D7D3E6"/>
<path d="M41.9393 49.4986C41.9359 49.4421 41.8892 49.3979 41.8324 49.3979H39.6965C39.6374 49.3979 39.5894 49.4459 39.5894 49.5051V50.8142C39.5894 50.8736 39.6374 50.9213 39.6965 50.9213H41.9115C41.9732 50.9213 42.0222 50.8695 42.0186 50.8078L41.9393 49.4986Z" fill="#D7D3E6"/>
<path d="M19.8805 51.9695C19.8872 51.9159 19.9328 51.8758 19.9868 51.8758H22.1967C22.2589 51.8758 22.3079 51.9283 22.3037 51.9902L22.2094 53.3746C22.2055 53.4309 22.1588 53.4744 22.1024 53.4744H19.8127C19.7483 53.4744 19.6984 53.4181 19.7064 53.354L19.8805 51.9695Z" fill="#D7D3E6"/>
<path d="M50.0553 51.9695C50.0485 51.9159 50.0031 51.8758 49.9491 51.8758H47.739C47.6769 51.8758 47.6278 51.9283 47.6321 51.9902L47.7264 53.3746C47.7302 53.4309 47.777 53.4744 47.8333 53.4744H50.1231C50.1876 53.4744 50.2375 53.4181 50.2293 53.354L50.0553 51.9695Z" fill="#D7D3E6"/>
<path d="M23.8763 51.974C23.8808 51.9184 23.9273 51.8758 23.983 51.8758H26.1937C26.2539 51.8758 26.3023 51.9255 26.3008 51.9857L26.2644 53.3703C26.2629 53.4284 26.2153 53.4744 26.1572 53.4744H23.8669C23.8043 53.4744 23.755 53.4209 23.7601 53.3585L23.8763 51.974Z" fill="#D7D3E6"/>
<path d="M46.0588 51.974C46.0543 51.9184 46.0078 51.8758 45.9521 51.8758H43.7415C43.6812 51.8758 43.6328 51.9255 43.6343 51.9857L43.6707 53.3703C43.6722 53.4284 43.7198 53.4744 43.7779 53.4744H46.0683C46.1308 53.4744 46.1803 53.4209 46.175 53.3585L46.0588 51.974Z" fill="#D7D3E6"/>
<path d="M27.9859 51.9611C27.9885 51.9039 28.0356 51.8588 28.0928 51.8588H41.8169C41.8743 51.8588 41.9217 51.9043 41.924 51.9617L41.9821 53.363C41.9847 53.4238 41.9361 53.4744 41.875 53.4744H28.0275C27.9664 53.4744 27.9177 53.4234 27.9205 53.3623L27.9859 51.9611Z" fill="#D7D3E6"/>
<defs>
<linearGradient id="paint0_linear_520_1720" x1="55.0818" y1="6.59752" x2="34.188" y2="42.291" gradientUnits="userSpaceOnUse">
<stop offset="0.411199" stop-color="#6863AC"/>
<stop offset="1" stop-color="#574974"/>
</linearGradient>
<linearGradient id="paint1_linear_520_1720" x1="34.9679" y1="43.0275" x2="34.9679" y2="43.8311" gradientUnits="userSpaceOnUse">
<stop stop-color="#534370" stop-opacity="0"/>
<stop offset="1" stop-color="#534370"/>
</linearGradient>
<linearGradient id="paint2_linear_520_1720" x1="53.8763" y1="10.8164" x2="19.9909" y2="45.2375" gradientUnits="userSpaceOnUse">
<stop offset="0.373087" stop-color="#59E8FF"/>
<stop offset="0.933488" stop-color="#2DB3FF"/>
</linearGradient>
<linearGradient id="paint3_linear_520_1720" x1="35.0002" y1="43.8312" x2="35.0002" y2="63.4276" gradientUnits="userSpaceOnUse">
<stop stop-color="#C9C6DA"/>
<stop offset="1" stop-color="#DAD5E4"/>
</linearGradient>
<linearGradient id="paint4_linear_520_1720" x1="35.0004" y1="63.6537" x2="35.0004" y2="65.2692" gradientUnits="userSpaceOnUse">
<stop stop-color="#8C8396"/>
<stop offset="1" stop-color="#998AA9"/>
</linearGradient>
<linearGradient id="paint5_linear_520_1720" x1="65.2608" y1="64.1894" x2="62.2473" y2="64.1894" gradientUnits="userSpaceOnUse">
<stop stop-color="#B0A8B8"/>
<stop offset="1" stop-color="#B0A8B8" stop-opacity="0"/>
</linearGradient>
<linearGradient id="paint6_linear_520_1720" x1="5.92791" y1="63.6577" x2="8.00389" y2="63.6577" gradientUnits="userSpaceOnUse">
<stop stop-color="#81778C"/>
<stop offset="1" stop-color="#81778C" stop-opacity="0"/>
</linearGradient>
<linearGradient id="paint7_linear_520_1720" x1="34.9875" y1="57.0908" x2="34.9875" y2="61.4101" gradientUnits="userSpaceOnUse">
<stop stop-color="#D8D4E5"/>
<stop offset="1" stop-color="#D8D4E5" stop-opacity="0"/>
</linearGradient>
<linearGradient id="paint8_linear_520_1720" x1="34.9875" y1="57.0908" x2="34.9875" y2="61.4101" gradientUnits="userSpaceOnUse">
<stop stop-color="#A9A7B8"/>
<stop offset="1" stop-color="#838191"/>
</linearGradient>
<linearGradient id="paint9_linear_520_1720" x1="35.0001" y1="46.0411" x2="35.0001" y2="54.8013" gradientUnits="userSpaceOnUse">
<stop stop-color="#C9C7DA"/>
<stop offset="1" stop-color="#C9C7DA" stop-opacity="0"/>
</linearGradient>
<linearGradient id="paint10_linear_520_1720" x1="35.0001" y1="46.0411" x2="35.0001" y2="54.8013" gradientUnits="userSpaceOnUse">
<stop stop-color="#A9A8BD"/>
<stop offset="1" stop-color="#8A8999"/>
</linearGradient>
</defs>
</svg>
