<svg width="71" height="71" viewBox="0 0 71 71" fill="none" xmlns="http://www.w3.org/2000/svg">
<path d="M4.91406 61.1993V10.0392C4.91406 7.4936 6.97771 5.42995 9.52333 5.42995C10.7458 5.42995 11.9182 5.91558 12.7826 6.77998L64.4033 58.4007C65.2677 59.2651 65.7533 60.4375 65.7533 61.66C65.7533 64.2057 63.6898 66.2692 61.1441 66.2692H9.98399C7.18395 66.2692 4.91406 63.9992 4.91406 61.1993ZM20.1239 53.2322H35.9025C37.2962 53.2322 37.9943 51.5472 37.0087 50.5616L20.6217 34.1745C19.6362 33.1889 17.951 33.8871 17.951 35.2807V51.0594C17.951 52.2594 18.9239 53.2322 20.1239 53.2322Z" fill="#BEBEBE"/>
<path d="M62.2568 56.2536L63.8186 57.8156L60.0162 61.6181C59.5849 62.0494 58.8856 62.0494 58.4543 61.6181C58.023 61.1867 58.023 60.4873 58.4543 60.056L62.2568 56.2536Z" fill="#8D65C5"/>
<path d="M50.3056 44.303L51.8675 45.865L48.065 49.6675C47.6337 50.0988 46.9345 50.0988 46.5032 49.6675C46.0719 49.2362 46.0719 48.5368 46.5032 48.1054L50.3056 44.303Z" fill="#8D65C5"/>
<path d="M38.3559 32.3524L39.9177 33.9145L36.1153 37.7169C35.684 38.1482 34.9848 38.1482 34.5535 37.7169C34.1222 37.2856 34.1222 36.5862 34.5535 36.1549L38.3559 32.3524Z" fill="#8D65C5"/>
<path d="M26.4048 20.4019L27.9666 21.9639L24.1642 25.7664C23.7329 26.1977 23.0336 26.1977 22.6023 25.7664C22.171 25.3351 22.171 24.6356 22.6023 24.2043L26.4048 20.4019Z" fill="#8D65C5"/>
<path d="M16.0165 10.0133L12.214 13.8158C11.7827 14.2471 11.0834 14.2471 10.6521 13.8158C10.2208 13.3845 10.2208 12.6852 10.6521 12.2538L14.4546 8.45139L16.0165 10.0133Z" fill="#8D65C5"/>
<path d="M20.9054 17.075C21.3367 16.6437 21.3367 15.9444 20.9054 15.5131C20.4741 15.0818 19.7748 15.0818 19.3435 15.5131L17.1707 17.6859C16.7393 18.1172 16.7393 18.8165 17.1707 19.2478C17.602 19.6791 18.3013 19.6791 18.7326 19.2478L20.9054 17.075Z" fill="#8D65C5"/>
<path d="M32.856 29.0256C33.2873 28.5943 33.2873 27.8949 32.856 27.4636C32.4247 27.0323 31.7255 27.0323 31.2942 27.4636L29.1213 29.6364C28.69 30.0677 28.69 30.7671 29.1213 31.1985C29.5526 31.6298 30.2519 31.6298 30.6832 31.1985L32.856 29.0256Z" fill="#8D65C5"/>
<path d="M44.8057 40.9762C45.237 40.5449 45.237 39.8454 44.8057 39.4141C44.3744 38.9828 43.6752 38.9828 43.2439 39.4141L41.071 41.587C40.6397 42.0183 40.6397 42.7177 41.071 43.149C41.5023 43.5803 42.2016 43.5803 42.6329 43.149L44.8057 40.9762Z" fill="#8D65C5"/>
<path d="M56.7569 52.9267C57.1882 52.4954 57.1882 51.796 56.7569 51.3646C56.3256 50.9333 55.6263 50.9333 55.195 51.3646L53.0222 53.5375C52.5909 53.9688 52.5909 54.6682 53.0222 55.0995C53.4535 55.5308 54.1527 55.5308 54.584 55.0995L56.7569 52.9267Z" fill="#8D65C5"/>
</svg>
