<svg width="71" height="71" viewBox="0 0 71 71" fill="none" xmlns="http://www.w3.org/2000/svg">
<path d="M49.1858 9.66563C33.4025 1.79089 14.6949 4.83044 6.16897 18.6074C-2.35694 32.3843 3.07256 50.7153 18.302 59.553C25.7849 63.8936 37.8644 68.3282 42.7724 62.4156C47.5838 56.6228 40.4865 52.9525 42.1423 49.7464C44.8085 44.5886 56.7332 51.3554 64.5335 43.0176C73.3227 33.6179 64.5549 17.3374 49.1858 9.66563ZM53.909 39.9382C49.8019 39.9382 46.8491 37.0062 46.8491 33.0297C46.8491 29.0533 49.8019 26.1214 53.909 26.1214C58.0162 26.1214 60.9692 29.0533 60.9692 33.0297C60.9692 37.0062 58.0162 39.9382 53.909 39.9382Z" fill="url(#paint0_linear_520_1722)"/>
<path d="M16.6916 31.1739C19.5104 31.1739 21.7955 28.8889 21.7955 26.0701C21.7955 23.2512 19.5104 20.966 16.6916 20.966C13.8728 20.966 11.5876 23.2512 11.5876 26.0701C11.5876 28.8889 13.8728 31.1739 16.6916 31.1739Z" fill="#CB758C"/>
<path d="M30.6174 21.7987C33.4363 21.7987 35.7215 19.5134 35.7215 16.6947C35.7215 13.8759 33.4363 11.5908 30.6174 11.5908C27.7986 11.5908 25.5134 13.8759 25.5134 16.6947C25.5134 19.5134 27.7986 21.7987 30.6174 21.7987Z" fill="#CB758C"/>
<path d="M29.4705 58.2207C32.2893 58.2207 34.5745 55.9357 34.5745 53.1169C34.5745 50.2981 32.2893 48.0129 29.4705 48.0129C26.6517 48.0129 24.3667 50.2981 24.3667 53.1169C24.3667 55.9357 26.6517 58.2207 29.4705 58.2207Z" fill="#CB758C"/>
<path d="M17.4867 46.5698C20.3055 46.5698 22.5906 44.2848 22.5906 41.466C22.5906 38.6472 20.3055 36.362 17.4867 36.362C14.6679 36.362 12.3828 38.6472 12.3828 41.466C12.3828 44.2848 14.6679 46.5698 17.4867 46.5698Z" fill="#EDB88B"/>
<path d="M17.6693 30.3316C20.4882 30.3316 22.7732 28.0464 22.7732 25.2276C22.7732 22.4087 20.4882 20.1238 17.6693 20.1238C14.8505 20.1238 12.5654 22.4087 12.5654 25.2276C12.5654 28.0464 14.8505 30.3316 17.6693 30.3316Z" fill="#EDB88B"/>
<path d="M32.0506 20.9661C34.8694 20.9661 37.1543 18.681 37.1543 15.8622C37.1543 13.0434 34.8694 10.7583 32.0506 10.7583C29.2317 10.7583 26.9465 13.0434 26.9465 15.8622C26.9465 18.681 29.2317 20.9661 32.0506 20.9661Z" fill="#EDB88B"/>
<path d="M31.3293 21.7072C34.225 21.7072 36.5722 19.36 36.5722 16.4644C36.5722 13.5689 34.225 11.2215 31.3293 11.2215C28.4338 11.2215 26.0864 13.5689 26.0864 16.4644C26.0864 19.36 28.4338 21.7072 31.3293 21.7072Z" fill="url(#paint1_linear_520_1722)"/>
<path d="M17.3476 31.028C20.2432 31.028 22.5905 28.6808 22.5905 25.7851C22.5905 22.8896 20.2432 20.5422 17.3476 20.5422C14.4521 20.5422 12.1047 22.8896 12.1047 25.7851C12.1047 28.6808 14.4521 31.028 17.3476 31.028Z" fill="url(#paint2_linear_520_1722)"/>
<path d="M16.6916 47.7167C19.5104 47.7167 21.7955 45.4318 21.7955 42.613C21.7955 39.7941 19.5104 37.5089 16.6916 37.5089C13.8728 37.5089 11.5876 39.7941 11.5876 42.613C11.5876 45.4318 13.8728 47.7167 16.6916 47.7167Z" fill="#CB758C"/>
<path d="M17.3476 47.3392C20.2432 47.3392 22.5905 44.992 22.5905 42.0963C22.5905 39.2008 20.2432 36.8534 17.3476 36.8534C14.4521 36.8534 12.1047 39.2008 12.1047 42.0963C12.1047 44.992 14.4521 47.3392 17.3476 47.3392Z" fill="url(#paint3_linear_520_1722)"/>
<path d="M30.1638 57.825C33.0595 57.825 35.4067 55.4778 35.4067 52.5821C35.4067 49.6866 33.0595 47.3392 30.1638 47.3392C27.2683 47.3392 24.9209 49.6866 24.9209 52.5821C24.9209 55.4778 27.2683 57.825 30.1638 57.825Z" fill="url(#paint4_linear_520_1722)"/>
<defs>
<linearGradient id="paint0_linear_520_1722" x1="53.909" y1="12.1605" x2="29.7819" y2="64.6649" gradientUnits="userSpaceOnUse">
<stop stop-color="#FFB9A1"/>
<stop offset="1" stop-color="#FFB4AD"/>
</linearGradient>
<linearGradient id="paint1_linear_520_1722" x1="28.2586" y1="11.2215" x2="33.077" y2="22.9007" gradientUnits="userSpaceOnUse">
<stop stop-color="#CC67F1"/>
<stop offset="1" stop-color="#C950FC"/>
</linearGradient>
<linearGradient id="paint2_linear_520_1722" x1="14.277" y1="20.5424" x2="19.0952" y2="32.2215" gradientUnits="userSpaceOnUse">
<stop stop-color="#F9399F"/>
<stop offset="1" stop-color="#FD328C"/>
</linearGradient>
<linearGradient id="paint3_linear_520_1722" x1="14.277" y1="36.8536" x2="19.0952" y2="48.5327" gradientUnits="userSpaceOnUse">
<stop stop-color="#47CFA8"/>
<stop offset="1" stop-color="#48ABEB"/>
</linearGradient>
<linearGradient id="paint4_linear_520_1722" x1="27.0931" y1="47.3394" x2="31.9114" y2="59.0185" gradientUnits="userSpaceOnUse">
<stop stop-color="#49B1F1"/>
<stop offset="1" stop-color="#4982FE"/>
</linearGradient>
</defs>
</svg>
