<svg width="71" height="71" viewBox="0 0 71 71" fill="none" xmlns="http://www.w3.org/2000/svg">
<path d="M53.2908 59.2341C58.286 56.4549 60.3403 50.4463 58.3488 45.2608C58.1091 44.6366 58.4273 43.9109 59.0444 43.6536C59.629 43.41 60.2017 43.105 60.745 42.7344C64.6187 40.0961 66.0007 34.9661 63.9906 30.7364C61.5826 25.6693 55.4685 23.7848 50.6526 26.4649C49.9406 26.8628 49.3125 27.3234 48.7471 27.8678C45.6273 22.6123 38.8641 20.7487 33.4828 23.7638C30.0907 25.6483 28.0597 29.0404 27.7246 32.6209C25.8192 32.4115 23.8091 32.7675 22.0085 33.7726C19.1817 35.343 17.4648 38.1488 17.1507 41.143C16.7319 45.0167 14.5543 48.4925 11.1413 50.3979C7.30947 52.5337 5.94845 57.3705 8.0842 61.2023C10.22 65.0341 15.0568 66.3951 18.8886 64.2594C22.2807 62.354 26.3846 62.333 29.9023 64.0081C32.6243 65.3063 35.9117 65.3273 38.7384 63.7359C40.2041 62.9178 41.3786 61.767 42.205 60.4186C42.5147 59.9138 43.1538 59.6912 43.7057 59.906C46.7278 61.0828 50.2384 60.9301 53.2908 59.2341Z" fill="url(#paint0_linear_520_1723)"/>
<path d="M51.9202 57.7902C56.6405 55.1637 58.5819 49.4857 56.6999 44.5854C56.4734 43.9956 56.6107 43.0316 57.1941 42.7885C57.7464 42.5581 58.2877 42.2698 58.8013 41.9197C62.4619 39.4265 63.9311 34.8569 62.0316 30.8599C59.7559 26.0712 53.9781 24.2903 49.4271 26.8231C48.7543 27.1991 48.1607 27.6345 47.6263 28.1489C44.6782 23.1823 38.2868 21.4213 33.2014 24.2706C29.9959 26.0515 28.0767 29.257 27.7601 32.6407C25.9593 32.4428 24.0598 32.7791 22.3581 33.7289C19.6868 35.213 18.0643 37.8645 17.7675 40.694C17.3717 44.3547 15.3138 47.6393 12.0885 49.4401C8.46745 51.4584 7.18126 56.0291 9.19957 59.6502C11.2179 63.2714 15.7887 64.5574 19.4098 62.5391C22.6153 60.7384 26.4937 60.7187 29.8179 62.3017C32.3903 63.5285 35.4967 63.5484 38.1681 62.0446C39.5532 61.2715 40.6629 60.1837 41.444 58.9096C41.7365 58.4324 42.3406 58.2222 42.8621 58.4251C45.718 59.5371 49.0355 59.3929 51.9202 57.7902Z" fill="url(#paint1_linear_520_1723)"/>
<path d="M53.3528 27.1269C56.1661 26.1865 60.4269 28.09 62.222 31.3303C63.5573 33.7406 63.6923 37.7619 59.7427 41.4513" stroke="url(#paint2_linear_520_1723)" stroke-width="1.50438"/>
<path d="M12.2926 18.2362C15.0719 13.2412 21.0805 11.1869 26.2658 13.1783C26.89 13.418 27.6157 13.0999 27.8731 12.4828C28.1168 11.8982 28.4219 11.3255 28.7923 10.782C31.4306 6.90836 36.5606 5.5264 40.7902 7.53652C45.8574 9.94448 47.7418 16.0586 45.0617 20.8745C44.6638 21.5864 44.2032 22.2146 43.6588 22.7799C48.9144 25.8999 50.778 32.6631 47.7628 38.0443C45.8783 41.4364 42.4862 43.4675 38.9057 43.8025C39.1151 45.7079 38.7591 47.718 37.7541 49.5188C36.1837 52.3455 33.3779 54.0625 30.3836 54.3766C26.5099 54.7953 23.0341 56.973 21.1288 60.386C18.993 64.2178 14.1562 65.5788 10.3244 63.443C6.49257 61.3073 5.13155 56.4704 7.2673 52.6386C9.17273 49.2466 9.19367 45.1426 7.51857 41.6249C6.22037 38.9028 6.19943 35.6154 7.79077 32.7887C8.60548 31.3291 9.59079 30.1517 10.8716 29.3231C11.3688 29.0013 11.5921 28.3631 11.3836 27.8088C10.2475 24.7891 10.5972 21.2879 12.2926 18.2362Z" fill="#457420"/>
<path d="M13.5073 18.887C16.1156 14.1557 22.0003 13.0395 26.8666 14.9258C28.231 15.4547 28.5662 13.8905 29.3037 12.8671C32.4049 8.56317 36.3981 7.2661 40.3675 9.1701C45.1229 11.4509 47.021 17.654 44.5058 22.2157C44.1325 22.89 43.7001 23.485 43.1892 24.0206C48.1215 26.9757 49.8703 33.3819 47.0407 38.479C45.2722 41.6921 42.0889 43.6159 38.7286 43.9332C38.9252 45.7381 38.5911 47.642 37.648 49.3477C36.1741 52.0252 33.5411 53.6515 30.7311 53.949C27.0957 54.3458 23.8339 56.4083 22.0456 59.6412C20.0413 63.2707 15.5021 64.5599 11.9061 62.5368C8.31014 60.5139 7.03288 55.9323 9.0372 52.3028C10.8254 49.09 10.845 45.2025 9.27299 41.8705C8.05469 39.2923 8.03503 36.1783 9.52844 33.5009C10.293 32.1183 11.468 31.2864 12.6699 30.5014C13.1366 30.1967 14.0434 28.998 13.8477 28.473C12.7815 25.6126 11.9163 21.7775 13.5073 18.887Z" fill="url(#paint3_linear_520_1723)"/>
<path d="M51.8153 49.9904C55.6846 46.087 55.9784 39.9461 53.2396 35.346C52.5258 34.1473 52.8426 32.6858 53.9825 31.8903C54.2461 31.7062 54.485 31.5017 54.6787 31.2661C56.118 24.9397 46.4338 15.9098 40.3122 17.5054C40.267 17.5508 40.2217 17.5995 40.1761 17.6509C39.2477 18.6987 37.7055 19.0007 36.511 18.2775C31.9405 15.5104 25.8199 15.7628 21.9547 19.6618C19.7016 21.9347 18.5382 25.1344 18.4969 28.2063C18.4796 29.4903 17.5844 30.6939 16.4377 31.2515C15.0506 31.9259 13.8319 32.9906 12.8269 34.0045C10.4381 36.3925 9.94264 39.3363 10.4856 42.4254C16.5783 77.5742 5.04724 56.954 30.1324 61.3549C32.501 61.7705 35.8411 61.1413 38.2083 58.7535C39.1903 57.7628 40.1179 56.6129 40.7452 55.3857C41.2978 54.3046 42.4366 53.5119 43.6423 53.502C46.6064 53.4779 49.5301 52.2957 51.8153 49.9904Z" fill="url(#paint4_linear_520_1723)"/>
<path d="M44.7978 16.3021C45.1578 13.3577 42.4422 9.56245 38.909 8.45018C36.2806 7.62287 32.3133 8.29312 29.4866 12.8996" stroke="url(#paint5_linear_520_1723)" stroke-width="1.50438"/>
<path d="M8.02452 40.611C6.6635 36.685 7.53355 35.18 8.22069 33.9695C7.94987 36.1942 7.78915 37.0326 8.48253 39.8912C8.96178 41.8672 10.2818 44.764 10.2818 47.9069C10.2818 50.7531 7.59902 53.9922 7.59902 53.9922C7.59902 53.9922 8.80955 51.8656 9.56203 47.9069C9.52836 45.6353 8.6571 42.4356 8.02452 40.611Z" fill="#688555"/>
<path d="M51.9962 48.4303C55.7269 44.6995 56.0102 38.8301 53.3694 34.4336C52.6814 33.2878 52.9866 31.891 54.0857 31.1307C54.3399 30.9548 54.5702 30.7593 54.757 30.5342C57.7513 26.9537 57.4623 21.6849 54.3843 18.1672C50.6991 13.9585 44.7996 13.4874 40.905 17.382C40.8616 17.4254 40.8179 17.4719 40.7739 17.521C39.8788 18.5225 38.3919 18.8112 37.2403 18.12C32.8333 15.4753 26.9319 15.7164 23.2053 19.4431C21.0329 21.6155 19.9112 24.6734 19.8714 27.6097C19.8547 28.8369 18.9916 29.9873 17.8859 30.5202C16.5485 31.1649 15.3735 32.1825 14.4045 33.1515C12.1012 35.4339 11.6235 38.2474 12.147 41.1998C12.817 45.0315 11.8474 48.8399 9.10446 51.6038C6.00552 54.7027 5.67385 59.1895 9.31985 62.8356C12.4188 65.9345 17.2601 65.63 20.359 62.5311C23.123 59.7672 27.2374 58.6223 31.0902 59.2921C33.3737 59.6893 36.5943 59.0881 38.8767 56.8058C39.8235 55.859 40.7178 54.7599 41.3227 53.5869C41.8554 52.5536 42.9534 51.796 44.1159 51.7866C46.9739 51.7638 49.7929 50.6335 51.9962 48.4303Z" fill="url(#paint6_linear_520_1723)"/>
<path d="M50.6113 47.8438C54.0867 44.3686 54.3254 38.5885 51.8655 34.4929C50.8445 32.7931 51.9057 31.8523 52.836 30.7304C55.6253 27.3951 55.7034 22.9297 52.836 19.6528C49.601 15.9582 44.5064 15.3644 41.0362 19.2469C40.2024 20.1798 37.9385 20.2527 36.8656 19.6089C32.7606 17.1452 27.6258 17.1495 24.1541 20.621C22.1306 22.6446 21.0505 25.967 21.0134 28.702C20.9978 29.8453 20.1938 30.9169 19.1638 31.4134C17.918 32.0137 16.4961 32.7085 15.5934 33.6111C13.4478 35.7373 13.1645 38.417 13.6521 41.1671C14.2763 44.7365 14.2443 48.6037 11.6892 51.1783C8.94084 54.4173 7.90008 57.9897 11.2964 61.386C14.1832 64.2728 17.709 62.8584 21.0134 60.1428C23.5881 57.5682 27.5477 57.3381 31.1366 57.9621C33.2639 58.332 36.264 57.7719 38.3902 55.6458C39.2721 54.7641 39.9317 53.4575 40.4951 52.3647C40.9914 51.4024 42.0142 50.6965 43.0972 50.6877C45.7596 50.6664 48.5589 49.8965 50.6113 47.8438Z" fill="url(#paint7_linear_520_1723)"/>
<path fill-rule="evenodd" clip-rule="evenodd" d="M31.022 26.2204C31.7122 26.006 32.4456 26.3917 32.6598 27.082L35.158 35.1259L43.7389 26.5447C44.2501 26.0336 45.0786 26.0336 45.5897 26.5447C46.1008 27.0559 46.1008 27.8844 45.5897 28.3955L37.0099 36.9756L45.0728 39.4744C45.7631 39.6884 46.1492 40.4215 45.9352 41.1118C45.7214 41.8022 44.9882 42.1883 44.2978 41.9743L34.9179 39.0674L26.8328 47.1524L32.3845 48.8759C33.0746 49.0903 33.4605 49.8236 33.2463 50.5137C33.0319 51.2041 32.2987 51.59 31.6085 51.3756L24.7414 49.2438L20.1911 53.7942C19.68 54.3053 18.8514 54.3053 18.3403 53.7942C17.8293 53.2831 17.8293 52.4546 18.3403 51.9434L22.8906 47.3932L20.7588 40.526C20.5445 39.8358 20.9304 39.1025 21.6206 38.8881C22.3109 38.6739 23.0441 39.0598 23.2586 39.75L24.982 45.3019L33.0667 37.217L30.1604 27.8582C29.946 27.1681 30.3317 26.4346 31.022 26.2204Z" fill="url(#paint8_linear_520_1723)"/>
<path fill-rule="evenodd" clip-rule="evenodd" d="M31.022 26.2204C31.7122 26.006 32.4456 26.3917 32.6598 27.082L35.158 35.1259L43.7389 26.5447C44.2501 26.0336 45.0786 26.0336 45.5897 26.5447C46.1008 27.0559 46.1008 27.8844 45.5897 28.3955L37.0099 36.9756L45.0728 39.4744C45.7631 39.6884 46.1492 40.4215 45.9352 41.1118C45.7214 41.8022 44.9882 42.1883 44.2978 41.9743L34.9179 39.0674L26.8328 47.1524L32.3845 48.8759C33.0746 49.0903 33.4605 49.8236 33.2463 50.5137C33.0319 51.2041 32.2987 51.59 31.6085 51.3756L24.7414 49.2438L20.1911 53.7942C19.68 54.3053 18.8514 54.3053 18.3403 53.7942C17.8293 53.2831 17.8293 52.4546 18.3403 51.9434L22.8906 47.3932L20.7588 40.526C20.5445 39.8358 20.9304 39.1025 21.6206 38.8881C22.3109 38.6739 23.0441 39.0598 23.2586 39.75L24.982 45.3019L33.0667 37.217L30.1604 27.8582C29.946 27.1681 30.3317 26.4346 31.022 26.2204Z" fill="url(#paint9_radial_520_1723)"/>
<path d="M44.4053 27.7205L36.7495 35.409" stroke="url(#paint10_linear_520_1723)" stroke-width="2.00584" stroke-linecap="round"/>
<path d="M44.7544 40.6825L34.4031 37.4307" stroke="url(#paint11_linear_520_1723)" stroke-width="2.00584" stroke-linecap="round"/>
<path d="M21.6418 40.1694L24.0224 47.8931" stroke="url(#paint12_linear_520_1723)" stroke-width="1.50438" stroke-linecap="round"/>
<path d="M32.1114 50.2184L24.375 47.8804" stroke="url(#paint13_linear_520_1723)" stroke-width="1.50438" stroke-linecap="round"/>
<path d="M19.1809 52.9124L35.3103 36.9793" stroke="url(#paint14_linear_520_1723)" stroke-width="2.00584" stroke-linecap="round"/>
<path d="M45.5854 15.9788C51.3436 14.6701 56.3166 18.3345 55.4331 24.6488C54.2958 18.7794 51.6116 16.522 45.5854 15.9788Z" fill="#BFEE84"/>
<path d="M52.9446 45.0277C52.9446 45.0277 54.4824 37.1759 51.5378 32.9226C50.6217 32.4647 49.5913 32.9042 50.1636 33.5443C53.4679 37.2414 52.9446 45.0277 52.9446 45.0277Z" fill="url(#paint15_linear_520_1723)"/>
<path d="M52.9446 45.0277C52.9446 45.0277 54.4824 37.1759 51.5378 32.9226C50.6217 32.4647 49.5913 32.9042 50.1636 33.5443C53.4679 37.2414 52.9446 45.0277 52.9446 45.0277Z" fill="url(#paint16_linear_520_1723)"/>
<path d="M27.2139 17.7667C27.2139 17.7667 35.1628 16.8545 39.1699 20.1261C39.5541 21.0755 39.0344 22.0679 38.4414 21.4469C35.0173 17.8606 27.2139 17.7667 27.2139 17.7667Z" fill="url(#paint17_linear_520_1723)"/>
<path d="M27.2139 17.7667C27.2139 17.7667 35.1628 16.8545 39.1699 20.1261C39.5541 21.0755 39.0344 22.0679 38.4414 21.4469C35.0173 17.8606 27.2139 17.7667 27.2139 17.7667Z" fill="url(#paint18_linear_520_1723)"/>
<path d="M25.4534 19.0984C25.4534 19.0984 20.3515 24.9831 20.5815 30.0557C21.0924 30.8887 21.958 31.1098 21.7815 30.294C20.664 25.1316 25.4534 19.0984 25.4534 19.0984Z" fill="url(#paint19_linear_520_1723)"/>
<path d="M52.2578 46.0091C52.2578 46.0091 48.6266 51.8445 43.0783 51.1454C42.2187 50.5886 41.8207 49.4921 42.6716 49.379C47.841 48.6918 52.2578 46.0091 52.2578 46.0091Z" fill="url(#paint20_linear_520_1723)"/>
<path d="M14.1757 36.0634C13.3904 38.1573 13.8029 40.8663 14.1757 43.5228C14.6991 47.2524 12.2563 49.9135 11.2312 51.3748C9.63895 53.1634 7.0499 58.0817 9.82428 61.4843C12.5987 64.8868 16.7712 63.2402 17.84 62.4985" stroke="url(#paint21_linear_520_1723)" stroke-width="1.00292"/>
<path d="M19.1154 51.8165C18.7774 52.1111 18.0104 52.8239 18.7065 53.4851C19.3607 54.1068 19.8841 53.4851 20.3587 53.0272" stroke="url(#paint22_radial_520_1723)" stroke-width="0.200584"/>
<path d="M24.3335 45.8131L22.5504 39.8912C22.4959 39.7277 22.2331 39.3188 21.6835 39.4496C20.9964 39.6132 21.1109 40.2348 21.1763 40.4966C21.2286 40.706 22.5832 45.0168 23.2702 47.2198" stroke="url(#paint23_linear_520_1723)" stroke-width="0.200584"/>
<path d="M34.7542 35.5887L32.1123 27.2318C32.0577 27.0683 31.7949 26.6593 31.2452 26.7902C30.5582 26.9537 30.6726 27.5754 30.7381 27.8371C30.7904 28.0465 32.8075 34.7436 33.4945 36.9465" stroke="url(#paint24_linear_520_1723)" stroke-width="0.200584"/>
<path d="M36.5554 37.2514L44.8804 39.9923C45.0433 40.0488 45.4491 40.3164 45.3116 40.8646C45.1399 41.5495 44.5197 41.4276 44.2588 41.3591C44.05 41.3043 37.3775 39.2079 35.1829 38.4947" stroke="url(#paint25_linear_520_1723)" stroke-width="0.200584"/>
<path d="M26.2898 47.75L32.205 49.5547C32.3683 49.6097 32.7762 49.8742 32.6434 50.4234C32.4774 51.1098 31.8561 50.9929 31.5946 50.9266C31.3854 50.8736 27.0796 49.5032 24.8792 48.808" stroke="url(#paint26_linear_520_1723)" stroke-width="0.200584"/>
<path d="M27.7855 15.4517L27.3276 13.8813C18.8212 11.5912 16.2039 15.4518 16.2039 15.4518C21.8311 13.8813 25.2337 14.8628 27.7855 15.4517Z" fill="url(#paint27_linear_520_1723)"/>
<path d="M55.5903 44.2253L57.1695 44.6519C59.6292 53.1107 55.8217 55.8047 55.8217 55.8047C57.2795 50.1472 56.23 46.765 55.5903 44.2253Z" fill="url(#paint28_linear_520_1723)"/>
<path d="M13.4512 28.7966L12.1506 28.7964C10.0849 21.8018 13.2592 18.7233 13.2592 18.7233C11.3069 21.7366 12.674 26.9025 13.4512 28.7966Z" fill="url(#paint29_linear_520_1723)"/>
<defs>
<linearGradient id="paint0_linear_520_1723" x1="61.222" y1="32.1372" x2="24.841" y2="63.1528" gradientUnits="userSpaceOnUse">
<stop stop-color="#4B7916"/>
<stop offset="0.16529" stop-color="#4C4954"/>
<stop offset="0.242505" stop-color="#4C771D"/>
<stop offset="0.464246" stop-color="#524C55"/>
<stop offset="0.575367" stop-color="#605A62"/>
<stop offset="1" stop-color="#574D55"/>
</linearGradient>
<linearGradient id="paint1_linear_520_1723" x1="56.6419" y1="25.4631" x2="27.7203" y2="61.8442" gradientUnits="userSpaceOnUse">
<stop stop-color="#5A853F"/>
<stop offset="0.720341" stop-color="#5B7444"/>
<stop offset="1" stop-color="#51534B"/>
</linearGradient>
<linearGradient id="paint2_linear_520_1723" x1="56.1739" y1="26.5523" x2="62.3179" y2="39.6574" gradientUnits="userSpaceOnUse">
<stop stop-color="#80AE64"/>
<stop offset="0.509923" stop-color="#84B05D"/>
<stop offset="1" stop-color="#8BB34F" stop-opacity="0"/>
</linearGradient>
<linearGradient id="paint3_linear_520_1723" x1="37.273" y1="11.9838" x2="8.0896" y2="44.1771" gradientUnits="userSpaceOnUse">
<stop stop-color="#5A873E"/>
<stop offset="0.36369" stop-color="#528034"/>
<stop offset="0.578004" stop-color="#5D8541"/>
<stop offset="1" stop-color="#4C6E39"/>
</linearGradient>
<linearGradient id="paint4_linear_520_1723" x1="32.6666" y1="18.2655" x2="35.7027" y2="63.4291" gradientUnits="userSpaceOnUse">
<stop stop-color="#2D5B18"/>
<stop offset="0.513713" stop-color="#436C30"/>
<stop offset="0.907398" stop-color="#374A2A"/>
</linearGradient>
<linearGradient id="paint5_linear_520_1723" x1="44.7978" y1="13.4231" x2="30.7303" y2="10.0182" gradientUnits="userSpaceOnUse">
<stop stop-color="#80AE64"/>
<stop offset="0.509923" stop-color="#84B05D"/>
<stop offset="1" stop-color="#8BB34F" stop-opacity="0"/>
</linearGradient>
<linearGradient id="paint6_linear_520_1723" x1="10.5767" y1="57.6564" x2="50.2294" y2="18.0036" gradientUnits="userSpaceOnUse">
<stop stop-color="#88AD37"/>
<stop offset="0.419142" stop-color="#70A124"/>
<stop offset="0.536304" stop-color="#71A520" stop-opacity="0.798295"/>
<stop offset="0.778878" stop-color="#89BF21"/>
<stop offset="1" stop-color="#89C031"/>
</linearGradient>
<linearGradient id="paint7_linear_520_1723" x1="9.92247" y1="58.3107" x2="52.5852" y2="19.4431" gradientUnits="userSpaceOnUse">
<stop stop-color="#8FB541"/>
<stop offset="0.169365" stop-color="#86AA3C"/>
<stop offset="0.357729" stop-color="#8DB93F"/>
<stop offset="0.534807" stop-color="#81A738"/>
<stop offset="0.711736" stop-color="#8CBC3D"/>
<stop offset="0.884418" stop-color="#82B42E"/>
<stop offset="1" stop-color="#83B835"/>
</linearGradient>
<linearGradient id="paint8_linear_520_1723" x1="24.972" y1="31.1557" x2="36.2921" y2="47.187" gradientUnits="userSpaceOnUse">
<stop stop-color="#457328"/>
<stop offset="1" stop-color="#46772A"/>
</linearGradient>
<radialGradient id="paint9_radial_520_1723" cx="0" cy="0" r="1" gradientUnits="userSpaceOnUse" gradientTransform="translate(33.2166 37.8954) rotate(100.814) scale(11.8578 11.8666)">
<stop stop-color="#3E5D2E"/>
<stop offset="1" stop-color="#40602F" stop-opacity="0"/>
</radialGradient>
<linearGradient id="paint10_linear_520_1723" x1="43.6199" y1="27.4914" x2="34.6556" y2="36.4559" gradientUnits="userSpaceOnUse">
<stop offset="0.310502" stop-color="#5C8141"/>
<stop offset="1" stop-color="#5C8142" stop-opacity="0"/>
</linearGradient>
<linearGradient id="paint11_linear_520_1723" x1="44.5958" y1="39.8802" x2="34.9353" y2="36.8227" gradientUnits="userSpaceOnUse">
<stop offset="0.434226" stop-color="#4D6E3C"/>
<stop offset="1" stop-color="#4D6D3C" stop-opacity="0"/>
</linearGradient>
<linearGradient id="paint12_linear_520_1723" x1="21.0736" y1="40.7576" x2="24.0806" y2="50.434" gradientUnits="userSpaceOnUse">
<stop offset="0.596596" stop-color="#5C8142"/>
<stop offset="1" stop-color="#4C6D3A" stop-opacity="0"/>
</linearGradient>
<linearGradient id="paint13_linear_520_1723" x1="31.5264" y1="50.7898" x2="21.8336" y2="47.8362" gradientUnits="userSpaceOnUse">
<stop offset="0.596596" stop-color="#5C8142"/>
<stop offset="1" stop-color="#4C6D3A" stop-opacity="0"/>
</linearGradient>
<linearGradient id="paint14_linear_520_1723" x1="19.4099" y1="52.8796" x2="35.3126" y2="36.9816" gradientUnits="userSpaceOnUse">
<stop offset="0.6893" stop-color="#5C8142"/>
<stop offset="1" stop-color="#5C8142" stop-opacity="0"/>
</linearGradient>
<linearGradient id="paint15_linear_520_1723" x1="50.9488" y1="33.257" x2="52.4538" y2="45.0277" gradientUnits="userSpaceOnUse">
<stop stop-color="#B2DE74" stop-opacity="0"/>
<stop offset="0.232995" stop-color="#B2DE74"/>
<stop offset="1" stop-color="#B2DD74" stop-opacity="0"/>
</linearGradient>
<linearGradient id="paint16_linear_520_1723" x1="50.9488" y1="33.257" x2="52.4538" y2="45.0277" gradientUnits="userSpaceOnUse">
<stop stop-color="#B2DE74" stop-opacity="0"/>
<stop offset="0.232995" stop-color="#B2DE74"/>
<stop offset="1" stop-color="#B2DD74" stop-opacity="0"/>
</linearGradient>
<linearGradient id="paint17_linear_520_1723" x1="38.7901" y1="20.6868" x2="27.1751" y2="18.256" gradientUnits="userSpaceOnUse">
<stop stop-color="#B2DE74" stop-opacity="0"/>
<stop offset="0.232995" stop-color="#B2DE74"/>
<stop offset="1" stop-color="#B2DD74" stop-opacity="0"/>
</linearGradient>
<linearGradient id="paint18_linear_520_1723" x1="38.7901" y1="20.6868" x2="27.1751" y2="18.256" gradientUnits="userSpaceOnUse">
<stop stop-color="#B2DE74" stop-opacity="0"/>
<stop offset="0.232995" stop-color="#B2DE74"/>
<stop offset="1" stop-color="#B2DD74" stop-opacity="0"/>
</linearGradient>
<linearGradient id="paint19_linear_520_1723" x1="21.0959" y1="30.1935" x2="25.6877" y2="19.2643" gradientUnits="userSpaceOnUse">
<stop stop-color="#8CB750"/>
<stop offset="0.232995" stop-color="#94C155"/>
<stop offset="1" stop-color="#ABD46F" stop-opacity="0"/>
</linearGradient>
<linearGradient id="paint20_linear_520_1723" x1="43.0672" y1="50.4685" x2="53.9733" y2="45.7912" gradientUnits="userSpaceOnUse">
<stop offset="0.580277" stop-color="#96AA61"/>
<stop offset="1" stop-color="#819252" stop-opacity="0"/>
</linearGradient>
<linearGradient id="paint21_linear_520_1723" x1="15.0918" y1="36.456" x2="5.01505" y2="55.497" gradientUnits="userSpaceOnUse">
<stop stop-color="#8BB34F" stop-opacity="0"/>
<stop offset="0.289402" stop-color="#94C051"/>
<stop offset="0.708202" stop-color="#94BE55"/>
<stop offset="1" stop-color="#8BB34F" stop-opacity="0"/>
</linearGradient>
<radialGradient id="paint22_radial_520_1723" cx="0" cy="0" r="1" gradientUnits="userSpaceOnUse" gradientTransform="translate(18.7392 53.4198) rotate(-50.6176) scale(1.418 1.10658)">
<stop stop-color="#80AE64"/>
<stop offset="1" stop-color="#8BB34F" stop-opacity="0"/>
</radialGradient>
<linearGradient id="paint23_linear_520_1723" x1="21.8798" y1="42.3614" x2="22.7297" y2="42.0506" gradientUnits="userSpaceOnUse">
<stop stop-color="#6E9253"/>
<stop offset="1" stop-color="#436C2F"/>
</linearGradient>
<linearGradient id="paint24_linear_520_1723" x1="31.3843" y1="29.618" x2="32.4639" y2="29.307" gradientUnits="userSpaceOnUse">
<stop stop-color="#597843"/>
<stop offset="1" stop-color="#456D31"/>
</linearGradient>
<linearGradient id="paint25_linear_520_1723" x1="42.4859" y1="40.6918" x2="42.8094" y2="39.616" gradientUnits="userSpaceOnUse">
<stop stop-color="#597843"/>
<stop offset="1" stop-color="#456D31"/>
</linearGradient>
<linearGradient id="paint26_linear_520_1723" x1="29.7323" y1="50.2163" x2="30.0462" y2="49.3675" gradientUnits="userSpaceOnUse">
<stop stop-color="#6E9253"/>
<stop offset="1" stop-color="#436C2F"/>
</linearGradient>
<linearGradient id="paint27_linear_520_1723" x1="26.346" y1="14.496" x2="18.1669" y2="14.9282" gradientUnits="userSpaceOnUse">
<stop stop-color="#77A458"/>
<stop offset="1" stop-color="#77A458" stop-opacity="0"/>
</linearGradient>
<linearGradient id="paint28_linear_520_1723" x1="56.5747" y1="45.6454" x2="56.3058" y2="53.8316" gradientUnits="userSpaceOnUse">
<stop stop-color="#77A458"/>
<stop offset="1" stop-color="#77A458" stop-opacity="0"/>
</linearGradient>
<linearGradient id="paint29_linear_520_1723" x1="12.6317" y1="27.6243" x2="12.8666" y2="19.2468" gradientUnits="userSpaceOnUse">
<stop offset="0.499816" stop-color="#688E4F"/>
<stop offset="1" stop-color="#77A458" stop-opacity="0"/>
</linearGradient>
</defs>
</svg>
