<svg width="71" height="71" viewBox="0 0 71 71" fill="none" xmlns="http://www.w3.org/2000/svg">
<path d="M68.3877 30.4145C68.3877 25.8661 65.5765 22.0042 61.5947 20.3578C61.1704 20.1824 60.9067 19.7488 60.9648 19.2932C61.0081 18.9528 61.0382 18.6101 61.0382 18.2525C61.0382 12.2066 56.0993 7.30899 50.0026 7.30899C47.8248 7.30899 45.8298 7.95035 44.1281 9.04022C43.6209 9.36509 42.9247 9.20529 42.5933 8.70235C41.0334 6.33566 38.3813 4.77817 35.3276 4.77817C32.3002 4.77817 29.637 6.32961 28.1037 8.67274C27.7732 9.17754 27.0772 9.34397 26.5678 9.02073C24.8675 7.94172 22.8746 7.28556 20.6998 7.28556C14.6029 7.28556 9.66396 12.1832 9.66396 18.229C9.66396 18.5826 9.69348 18.9288 9.736 19.2677C9.79332 19.7244 9.53102 20.1605 9.10605 20.3373C5.10331 22.0028 2.29102 25.8651 2.29102 30.4145C2.29102 34.9629 5.10215 38.8245 9.08384 40.471C9.50827 40.6467 9.77187 41.0802 9.71387 41.5358C9.67054 41.8761 9.64034 42.2188 9.64034 42.5766C9.64034 48.6223 14.5793 53.52 20.6761 53.52C22.8522 53.52 24.8463 52.8795 26.5471 51.791C27.0556 51.4657 27.7535 51.6271 28.0856 52.1311C29.6302 54.4752 32.276 56.0273 35.3038 56.0273C38.3312 56.0273 40.9944 54.4759 42.5277 52.1327C42.8582 51.628 43.5541 51.4615 44.0636 51.7849C45.7639 52.8638 47.7568 53.52 49.9315 53.52C56.0286 53.52 60.9674 48.6223 60.9674 42.5766C60.9674 42.2247 60.9382 41.8803 60.8959 41.5431C60.8385 41.0842 61.1038 40.6462 61.5319 40.471C65.5556 38.8245 68.3877 34.9629 68.3877 30.4145Z" fill="url(#paint0_radial_520_1724)"/>
<path d="M68.3877 30.4145C68.3877 25.8661 65.5765 22.0042 61.5947 20.3578C61.1704 20.1824 60.9067 19.7488 60.9648 19.2932C61.0081 18.9528 61.0382 18.6101 61.0382 18.2525C61.0382 12.2066 56.0993 7.30899 50.0026 7.30899C47.8248 7.30899 45.8298 7.95035 44.1281 9.04022C43.6209 9.36509 42.9247 9.20529 42.5933 8.70235C41.0334 6.33566 38.3813 4.77817 35.3276 4.77817C32.3002 4.77817 29.637 6.32961 28.1037 8.67274C27.7732 9.17754 27.0772 9.34397 26.5678 9.02073C24.8675 7.94172 22.8746 7.28556 20.6998 7.28556C14.6029 7.28556 9.66396 12.1832 9.66396 18.229C9.66396 18.5826 9.69348 18.9288 9.736 19.2677C9.79332 19.7244 9.53102 20.1605 9.10605 20.3373C5.10331 22.0028 2.29102 25.8651 2.29102 30.4145C2.29102 34.9629 5.10215 38.8245 9.08384 40.471C9.50827 40.6467 9.77187 41.0802 9.71387 41.5358C9.67054 41.8761 9.64034 42.2188 9.64034 42.5766C9.64034 48.6223 14.5793 53.52 20.6761 53.52C22.8522 53.52 24.8463 52.8795 26.5471 51.791C27.0556 51.4657 27.7535 51.6271 28.0856 52.1311C29.6302 54.4752 32.276 56.0273 35.3038 56.0273C38.3312 56.0273 40.9944 54.4759 42.5277 52.1327C42.8582 51.628 43.5541 51.4615 44.0636 51.7849C45.7639 52.8638 47.7568 53.52 49.9315 53.52C56.0286 53.52 60.9674 48.6223 60.9674 42.5766C60.9674 42.2247 60.9382 41.8803 60.8959 41.5431C60.8385 41.0842 61.1038 40.6462 61.5319 40.471C65.5556 38.8245 68.3877 34.9629 68.3877 30.4145Z" fill="url(#paint1_radial_520_1724)"/>
<path d="M68.3877 30.4145C68.3877 25.8661 65.5765 22.0042 61.5947 20.3578C61.1704 20.1824 60.9067 19.7488 60.9648 19.2932C61.0081 18.9528 61.0382 18.6101 61.0382 18.2525C61.0382 12.2066 56.0993 7.30899 50.0026 7.30899C47.8248 7.30899 45.8298 7.95035 44.1281 9.04022C43.6209 9.36509 42.9247 9.20529 42.5933 8.70235C41.0334 6.33566 38.3813 4.77817 35.3276 4.77817C32.3002 4.77817 29.637 6.32961 28.1037 8.67274C27.7732 9.17754 27.0772 9.34397 26.5678 9.02073C24.8675 7.94172 22.8746 7.28556 20.6998 7.28556C14.6029 7.28556 9.66396 12.1832 9.66396 18.229C9.66396 18.5826 9.69348 18.9288 9.736 19.2677C9.79332 19.7244 9.53102 20.1605 9.10605 20.3373C5.10331 22.0028 2.29102 25.8651 2.29102 30.4145C2.29102 34.9629 5.10215 38.8245 9.08384 40.471C9.50827 40.6467 9.77187 41.0802 9.71387 41.5358C9.67054 41.8761 9.64034 42.2188 9.64034 42.5766C9.64034 48.6223 14.5793 53.52 20.6761 53.52C22.8522 53.52 24.8463 52.8795 26.5471 51.791C27.0556 51.4657 27.7535 51.6271 28.0856 52.1311C29.6302 54.4752 32.276 56.0273 35.3038 56.0273C38.3312 56.0273 40.9944 54.4759 42.5277 52.1327C42.8582 51.628 43.5541 51.4615 44.0636 51.7849C45.7639 52.8638 47.7568 53.52 49.9315 53.52C56.0286 53.52 60.9674 48.6223 60.9674 42.5766C60.9674 42.2247 60.9382 41.8803 60.8959 41.5431C60.8385 41.0842 61.1038 40.6462 61.5319 40.471C65.5556 38.8245 68.3877 34.9629 68.3877 30.4145Z" fill="url(#paint2_radial_520_1724)"/>
<path d="M68.3877 30.4145C68.3877 25.8661 65.5765 22.0042 61.5947 20.3578C61.1704 20.1824 60.9067 19.7488 60.9648 19.2932C61.0081 18.9528 61.0382 18.6101 61.0382 18.2525C61.0382 12.2066 56.0993 7.30899 50.0026 7.30899C47.8248 7.30899 45.8298 7.95035 44.1281 9.04022C43.6209 9.36509 42.9247 9.20529 42.5933 8.70235C41.0334 6.33566 38.3813 4.77817 35.3276 4.77817C32.3002 4.77817 29.637 6.32961 28.1037 8.67274C27.7732 9.17754 27.0772 9.34397 26.5678 9.02073C24.8675 7.94172 22.8746 7.28556 20.6998 7.28556C14.6029 7.28556 9.66396 12.1832 9.66396 18.229C9.66396 18.5826 9.69348 18.9288 9.736 19.2677C9.79332 19.7244 9.53102 20.1605 9.10605 20.3373C5.10331 22.0028 2.29102 25.8651 2.29102 30.4145C2.29102 34.9629 5.10215 38.8245 9.08384 40.471C9.50827 40.6467 9.77187 41.0802 9.71387 41.5358C9.67054 41.8761 9.64034 42.2188 9.64034 42.5766C9.64034 48.6223 14.5793 53.52 20.6761 53.52C22.8522 53.52 24.8463 52.8795 26.5471 51.791C27.0556 51.4657 27.7535 51.6271 28.0856 52.1311C29.6302 54.4752 32.276 56.0273 35.3038 56.0273C38.3312 56.0273 40.9944 54.4759 42.5277 52.1327C42.8582 51.628 43.5541 51.4615 44.0636 51.7849C45.7639 52.8638 47.7568 53.52 49.9315 53.52C56.0286 53.52 60.9674 48.6223 60.9674 42.5766C60.9674 42.2247 60.9382 41.8803 60.8959 41.5431C60.8385 41.0842 61.1038 40.6462 61.5319 40.471C65.5556 38.8245 68.3877 34.9629 68.3877 30.4145Z" fill="url(#paint3_linear_520_1724)"/>
<path d="M26.3285 9.39783L26.3285 9.39785C27.0537 9.85799 28.0194 9.61685 28.4774 8.91736L28.4774 8.9173C29.9311 6.69581 32.4562 5.2248 35.3276 5.2248C38.2238 5.2248 40.7391 6.70061 42.2204 8.94814C42.6815 9.64791 43.6488 9.87761 44.3689 9.41633C46.003 8.36979 47.9151 7.75562 50.0026 7.75562C55.8562 7.75562 60.5916 12.4568 60.5916 18.2525C60.5916 18.5851 60.5636 18.9078 60.5218 19.2369C60.4371 19.9011 60.8218 20.5216 61.4241 20.7705C65.2486 22.352 67.9411 26.0572 67.9411 30.4145C67.9411 34.7696 65.2299 38.4752 61.3628 40.0576L61.3627 40.0576C60.7543 40.3067 60.3695 40.9326 60.4527 41.5985L60.4528 41.5987C60.4936 41.9242 60.5208 42.249 60.5208 42.5766C60.5208 48.3721 55.7854 53.0734 49.9315 53.0734C47.8492 53.0734 45.9384 52.4455 44.303 51.4078C43.5777 50.9474 42.6119 51.1887 42.154 51.8881L42.154 51.8882C40.7003 54.1097 38.1752 55.5807 35.3038 55.5807C32.4333 55.5807 29.9244 54.11 28.4585 51.8854C27.9971 51.1851 27.0285 50.9529 26.3064 51.4148L26.3063 51.4148C24.6732 52.46 22.762 53.0734 20.6761 53.0734C14.8224 53.0734 10.087 48.3721 10.087 42.5766C10.087 42.2439 10.115 41.9212 10.1569 41.5922C10.2415 40.9279 9.85691 40.3076 9.25467 40.0583L9.25451 40.0583C5.43004 38.4768 2.73764 34.7718 2.73764 30.4145C2.73764 26.057 5.43061 22.3504 9.27763 20.7497L9.27765 20.7497C9.88172 20.4983 10.2623 19.8748 10.1792 19.212C10.1381 18.8847 10.1106 18.5581 10.1106 18.229C10.1106 12.4334 14.846 7.73219 20.6998 7.73219C22.7822 7.73219 24.693 8.35996 26.3285 9.39783Z" fill="url(#paint4_radial_520_1724)" stroke="#D5D5D5" stroke-width="0.893255"/>
<path d="M8.75851 65.7294C12.2597 65.7294 15.098 62.8912 15.098 59.3899C15.098 55.8888 12.2597 53.0504 8.75851 53.0504C5.25727 53.0504 2.41895 55.8888 2.41895 59.3899C2.41895 62.8912 5.25727 65.7294 8.75851 65.7294Z" fill="url(#paint5_radial_520_1724)"/>
<path d="M8.75851 65.7294C12.2597 65.7294 15.098 62.8912 15.098 59.3899C15.098 55.8888 12.2597 53.0504 8.75851 53.0504C5.25727 53.0504 2.41895 55.8888 2.41895 59.3899C2.41895 62.8912 5.25727 65.7294 8.75851 65.7294Z" fill="url(#paint6_radial_520_1724)"/>
<path d="M8.75851 65.7294C12.2597 65.7294 15.098 62.8912 15.098 59.3899C15.098 55.8888 12.2597 53.0504 8.75851 53.0504C5.25727 53.0504 2.41895 55.8888 2.41895 59.3899C2.41895 62.8912 5.25727 65.7294 8.75851 65.7294Z" fill="url(#paint7_radial_520_1724)"/>
<path d="M8.75851 65.7294C12.2597 65.7294 15.098 62.8912 15.098 59.3899C15.098 55.8888 12.2597 53.0504 8.75851 53.0504C5.25727 53.0504 2.41895 55.8888 2.41895 59.3899C2.41895 62.8912 5.25727 65.7294 8.75851 65.7294Z" fill="url(#paint8_linear_520_1724)"/>
<path d="M8.75851 65.7294C12.2597 65.7294 15.098 62.8912 15.098 59.3899C15.098 55.8888 12.2597 53.0504 8.75851 53.0504C5.25727 53.0504 2.41895 55.8888 2.41895 59.3899C2.41895 62.8912 5.25727 65.7294 8.75851 65.7294Z" fill="url(#paint9_radial_520_1724)"/>
<path d="M17.8488 26.0001L11.2243 17.0711L10.6425 20.4521L7.85986 21.6458L17.8488 26.0001Z" fill="url(#paint10_linear_520_1724)" fill-opacity="0.6"/>
<path d="M54.6644 11.7204C59.358 13.5293 59.4721 18.4632 58.9424 20.7042L51.731 23.882L54.6644 11.7204Z" fill="url(#paint11_linear_520_1724)"/>
<path d="M57.7841 38.795C60.9586 42.8885 58.0962 48.1157 56.1917 49.2445L46.7192 34.6382L57.7841 38.795Z" fill="url(#paint12_linear_520_1724)"/>
<path d="M26.9185 11.3538C29.4609 13.994 29.2482 18.4023 28.8406 20.032L18.3291 9.88709C20.1349 9.15372 24.3762 8.71369 26.9185 11.3538Z" fill="#FAFAFC" fill-opacity="0.25"/>
<path d="M41.0972 19.4817L43.0529 10.6507C47.4226 8.35895 49.7753 8.63398 50.7227 8.63398L41.0972 19.4817Z" fill="#E6E4EC" fill-opacity="0.5"/>
<defs>
<radialGradient id="paint0_radial_520_1724" cx="0" cy="0" r="1" gradientUnits="userSpaceOnUse" gradientTransform="translate(46.1282 13.742) rotate(102.766) scale(37.0135 69.6011)">
<stop stop-color="white"/>
<stop offset="1" stop-color="#E4DBF7"/>
</radialGradient>
<radialGradient id="paint1_radial_520_1724" cx="0" cy="0" r="1" gradientUnits="userSpaceOnUse" gradientTransform="translate(46.8456 52.8948) rotate(-165.279) scale(56.8233 104.896)">
<stop offset="0.523478" stop-color="#CECECE" stop-opacity="0"/>
<stop offset="1" stop-color="#CECECE"/>
</radialGradient>
<radialGradient id="paint2_radial_520_1724" cx="0" cy="0" r="1" gradientUnits="userSpaceOnUse" gradientTransform="translate(47.6877 53.0138) rotate(-131.228) scale(56.8785 46.5685)">
<stop offset="0.753049" stop-color="#CECECE" stop-opacity="0"/>
<stop offset="1" stop-color="#CECECE"/>
</radialGradient>
<linearGradient id="paint3_linear_520_1724" x1="18.147" y1="29.0143" x2="1.11835" y2="54.3498" gradientUnits="userSpaceOnUse">
<stop offset="0.439002" stop-color="#B6A8F2" stop-opacity="0"/>
<stop offset="0.96612" stop-color="#B6A8F2"/>
</linearGradient>
<radialGradient id="paint4_radial_520_1724" cx="0" cy="0" r="1" gradientUnits="userSpaceOnUse" gradientTransform="translate(41.8235 21.9334) rotate(117.537) scale(69.8339 161.327)">
<stop offset="0.278342" stop-color="#B6A8F2" stop-opacity="0"/>
<stop offset="1" stop-color="#B6A8F2"/>
</radialGradient>
<radialGradient id="paint5_radial_520_1724" cx="0" cy="0" r="1" gradientUnits="userSpaceOnUse" gradientTransform="translate(15.098 55.8068) rotate(124.829) scale(10.2235 15.2022)">
<stop stop-color="white"/>
<stop offset="1" stop-color="#E0D8F0"/>
</radialGradient>
<radialGradient id="paint6_radial_520_1724" cx="0" cy="0" r="1" gradientUnits="userSpaceOnUse" gradientTransform="translate(10.9657 64.9546) rotate(-161.281) scale(11.1312 25.4129)">
<stop offset="0.523478" stop-color="#CECECE" stop-opacity="0"/>
<stop offset="1" stop-color="#CECECE"/>
</radialGradient>
<radialGradient id="paint7_radial_520_1724" cx="0" cy="0" r="1" gradientUnits="userSpaceOnUse" gradientTransform="translate(10.4703 65.5384) rotate(-128.192) scale(15.8891 17.4742)">
<stop offset="0.618588" stop-color="#CECECE" stop-opacity="0"/>
<stop offset="1" stop-color="#CECECE"/>
</radialGradient>
<linearGradient id="paint8_linear_520_1724" x1="5.46056" y1="59.0465" x2="0.95681" y2="64.242" gradientUnits="userSpaceOnUse">
<stop offset="0.439002" stop-color="#B6A8F2" stop-opacity="0"/>
<stop offset="0.96612" stop-color="#B6A8F2"/>
</linearGradient>
<radialGradient id="paint9_radial_520_1724" cx="0" cy="0" r="1" gradientUnits="userSpaceOnUse" gradientTransform="translate(10.0023 57.2947) rotate(112.012) scale(16.5242 32.3566)">
<stop offset="0.278342" stop-color="#B6A8F2" stop-opacity="0"/>
<stop offset="1" stop-color="#B6A8F2"/>
</radialGradient>
<linearGradient id="paint10_linear_520_1724" x1="18.3291" y1="26.3322" x2="17.4543" y2="19.2622" gradientUnits="userSpaceOnUse">
<stop offset="0.515508" stop-color="#CEC7D4" stop-opacity="0"/>
<stop offset="1" stop-color="#CEC7D5"/>
</linearGradient>
<linearGradient id="paint11_linear_520_1724" x1="58.6368" y1="22.1709" x2="48.7975" y2="17.4651" gradientUnits="userSpaceOnUse">
<stop stop-color="white"/>
<stop offset="1" stop-color="white" stop-opacity="0"/>
</linearGradient>
<linearGradient id="paint12_linear_520_1724" x1="58.5141" y1="49.3435" x2="51.4238" y2="36.5391" gradientUnits="userSpaceOnUse">
<stop stop-color="white" stop-opacity="0.6"/>
<stop offset="1" stop-color="white" stop-opacity="0"/>
</linearGradient>
</defs>
</svg>
