<svg width="71" height="71" viewBox="0 0 71 71" fill="none" xmlns="http://www.w3.org/2000/svg">
<path d="M35.4956 66.0295C52.161 66.0295 65.6709 52.5196 65.6709 35.8542C65.6709 19.1889 52.161 5.67894 35.4956 5.67894C18.8302 5.67894 5.32031 19.1889 5.32031 35.8542C5.32031 52.5196 18.8302 66.0295 35.4956 66.0295Z" fill="url(#paint0_radial_520_1725)"/>
<path d="M35.4956 66.0295C52.161 66.0295 65.6709 52.5196 65.6709 35.8542C65.6709 19.1889 52.161 5.67894 35.4956 5.67894C18.8302 5.67894 5.32031 19.1889 5.32031 35.8542C5.32031 52.5196 18.8302 66.0295 35.4956 66.0295Z" fill="url(#paint1_radial_520_1725)"/>
<path d="M43.7093 7.14822L40.731 9.95009C40.342 10.3161 39.8277 10.52 39.2936 10.52C38.597 10.52 37.92 10.2888 37.3689 9.86277L36.5634 9.24006C36.1181 8.79179 35.4603 8.49262 34.8242 8.49262H32.1104C31.7289 8.49262 31.1215 8.68451 30.6331 8.96236L28.0667 10.3928C27.7063 10.5635 27.4942 10.9264 27.4731 11.3107C27.4836 11.8962 27.4836 12.2112 27.4836 12.5456C27.4836 12.8799 27.4836 13.2335 27.4942 13.8961C27.4942 14.5579 28.1514 14.9026 28.6603 14.8812C29.1903 14.8385 29.6142 14.2867 29.6142 13.753C29.6142 11.6209 30.1994 11.5592 30.6141 11.5154L30.6331 11.5134C31.8959 11.3787 31.8886 12.6595 31.8229 14.0755C31.808 14.3934 31.7931 14.7158 31.7931 15.0249C31.7931 16.263 30.9661 17.1169 29.7153 17.1169H26.3654C25.7559 17.1038 25.1145 16.8271 24.4851 16.5556C24.0857 16.3833 23.691 16.213 23.3123 16.1136C22.4219 15.9001 21.2134 15.8501 21.2134 17.5365V18.1982C21.2134 18.6038 20.9362 18.8825 20.4119 19.0825C19.772 19.3267 19.0721 19.8705 19.0721 20.6603V23.0796C19.0721 23.8267 19.6869 24.4457 20.4502 24.4457H21.6799C22.7002 24.4457 22.8867 23.2367 23.0166 22.3931C23.0306 22.3015 23.0442 22.2142 23.058 22.1332C23.058 21.7277 23.3759 21.3861 23.8001 21.3861H25.8566C26.0473 21.3861 27.0226 21.4075 27.7858 22.0479L28.7189 22.7736C29.2064 23.2645 29.8425 23.5208 30.521 23.5208H30.8178C31.3053 23.5208 31.7506 23.2859 32.005 22.8804L33.3195 20.9165C33.5739 20.5323 33.9981 20.3188 34.4431 20.3188H35.2277C35.567 20.3188 35.8424 20.5963 35.8424 20.9379V21.9451C35.8424 23.1322 37.0083 23.5208 37.6659 23.5208C39.0015 23.5208 40.104 24.6095 40.104 25.9542C40.104 26.6586 39.3408 27.0856 38.7259 26.7226C37.6023 26.0396 35.6941 25.5059 34.7399 25.7409C33.8071 25.9542 31.7718 27.8113 31.7718 27.8113C31.7718 27.8113 29.3761 28.3663 29.4397 27.1283V26.5306C29.4608 25.9542 28.9096 25.6982 28.4219 25.6982H26.2169C25.5598 25.6982 24.9237 25.9542 24.4573 26.4239L23.7788 27.1069C23.3123 27.5766 22.6976 27.8326 22.0403 27.8326H19.7929C19.0509 27.8113 18.33 28.1103 17.8212 28.6439L15.5526 31.056C14.9166 31.7391 14.5562 32.657 14.5562 33.6175V35.1331C14.5562 37.0329 16.9095 40.6405 18.7965 40.6405H24.8601C26.8319 40.6405 28.4219 42.2416 28.4219 44.2267V47.8983C28.4219 48.6667 29.0579 49.3071 29.8214 49.3071H30.5633C31.0086 49.3071 31.6235 49.606 31.6235 50.8014V55.3036C31.6235 56.563 32.641 57.609 33.9131 57.609H34.952C35.567 57.609 36.1394 57.374 36.5634 56.9257L39.6747 53.7685C40.0721 53.3652 40.2948 52.8219 40.2948 52.2557V48.4318C40.3161 47.7274 40.8871 46.892 41.5867 46.892C42.0186 46.892 42.4223 46.678 42.665 46.3208L46.3585 40.8826C46.5706 40.4558 46.6764 39.9862 46.6764 39.5165V38.7481C46.6764 38.4065 46.401 38.1078 46.0617 38.0649C43.658 37.5633 40.2737 35.8289 40.2737 33.6903V32.9771C40.2737 29.988 42.6995 29.9885 43.3142 29.9887H43.3267C43.9203 29.9887 44.3868 30.4797 44.3868 31.056V32.8704C44.3868 33.639 45.3418 34.5826 46.7057 33.9597L48.8779 32.8704C49.9593 32.3154 50.2468 31.1799 49.4168 30.1878C48.6423 29.2617 48.3983 27.6956 50.0399 27.6956H53.0371C55.7482 27.6956 57.235 31.8192 57.235 34.3809V35.5336C57.235 35.8963 57.5318 36.1953 57.8921 36.1953H58.6129C59.0793 36.1953 59.5035 35.9604 59.7578 35.5763L64.6001 28.9474C62.041 18.4699 54.0112 10.1373 43.7093 7.14822Z" fill="url(#paint2_linear_520_1725)"/>
<path d="M43.9194 6.87022L40.9409 9.67208C40.5518 10.0382 40.0378 10.242 39.5034 10.242C38.8068 10.242 38.13 10.0108 37.5789 9.58479L36.7732 8.96208C36.3281 8.51381 35.6703 8.21462 35.0343 8.21462H32.3204C31.9387 8.21462 31.3313 8.40653 30.8431 8.68436L28.2765 10.1148C27.9161 10.2855 27.704 10.6484 27.6829 11.0327C27.6935 11.6182 27.6935 11.9332 27.6935 12.2676C27.6935 12.6019 27.6935 12.9555 27.704 13.6182C27.704 14.2799 28.3614 14.6246 28.8703 14.6032C29.4003 14.5605 29.8243 14.0087 29.8243 13.475C29.8243 11.3429 30.4095 11.2812 30.8242 11.2375L30.8431 11.2355C32.106 11.1008 32.0986 12.3815 32.0327 13.7975C32.018 14.1154 32.0029 14.4378 32.0029 14.7469C32.0029 15.985 31.1761 16.8389 29.9252 16.8389H26.5753C25.9657 16.8258 25.3245 16.5491 24.6951 16.2776C24.2957 16.1053 23.9011 15.935 23.5224 15.8356C22.6318 15.6221 21.4234 15.5721 21.4234 17.2585V17.9202C21.4234 18.3258 21.1462 18.6045 20.6218 18.8045C19.982 19.0487 19.282 19.5925 19.282 20.3823V22.8016C19.282 23.5487 19.8969 24.1677 20.6601 24.1677H21.8898C22.9103 24.1677 23.0965 22.9588 23.2267 22.1151C23.2407 22.0235 23.2541 21.9362 23.2678 21.8552C23.2678 21.4497 23.586 21.1081 24.0099 21.1081H26.0666C26.2574 21.1081 27.2327 21.1295 27.9959 21.7699L28.9287 22.4956C29.4165 22.9866 30.0523 23.2428 30.7308 23.2428H31.0276C31.5154 23.2428 31.9605 23.0079 32.215 22.6024L33.5294 20.6385C33.7839 20.2543 34.2079 20.0408 34.6532 20.0408H35.4375C35.7768 20.0408 36.0525 20.3183 36.0525 20.6599V21.6671C36.0525 22.8543 37.2183 23.2428 37.8757 23.2428C39.2116 23.2428 40.3141 24.3315 40.3141 25.6763C40.3141 26.3806 39.5506 26.8076 38.9359 26.4446C37.8121 25.7616 35.904 25.2279 34.95 25.4629C34.0171 25.6763 31.9818 27.5333 31.9818 27.5333C31.9818 27.5333 29.5859 28.0883 29.6497 26.8503V26.2526C29.6708 25.6763 29.1195 25.42 28.6319 25.42H26.427C25.7698 25.42 25.1338 25.6763 24.6673 26.1459L23.9888 26.8289C23.5224 27.2986 22.9075 27.5547 22.2503 27.5547H20.0029C19.2609 27.5333 18.54 27.8323 18.0311 28.3659L15.7626 30.778C15.1265 31.4611 14.7661 32.379 14.7661 33.3395V34.8551C14.7661 36.7549 17.1195 40.3626 19.0064 40.3626H25.07C27.0419 40.3626 28.6319 41.9636 28.6319 43.9487V47.6204C28.6319 48.3888 29.268 49.0291 30.0312 49.0291H30.7733C31.2186 49.0291 31.8333 49.3279 31.8333 50.5234V55.0256C31.8333 56.285 32.8511 57.331 34.1232 57.331H35.1621C35.7768 57.331 36.3493 57.096 36.7732 56.6477L39.8847 53.4905C40.282 53.0873 40.5048 52.5439 40.5048 51.9777V48.1538C40.526 47.4494 41.0971 46.614 41.7968 46.614C42.2285 46.614 42.6324 46.4 42.8751 46.0428L46.5686 40.6046C46.7804 40.1778 46.8865 39.7082 46.8865 39.2385V38.4701C46.8865 38.1285 46.6108 37.8296 46.2715 37.7869C43.8679 37.2851 40.4835 35.5509 40.4835 33.4123V32.6991C40.4835 29.71 42.9094 29.7105 43.5241 29.7107H43.5366C44.1302 29.7107 44.5966 30.2017 44.5966 30.778V32.5924C44.5966 33.3608 45.5519 34.3047 46.9158 33.6818L49.088 32.5924C50.1693 32.0374 50.4566 30.902 49.6268 29.9098C48.8522 28.9837 48.6084 27.4176 50.2499 27.4176H53.2472C55.9582 27.4176 57.4448 31.5412 57.4448 34.1029V35.2556C57.4448 35.6184 57.7416 35.9173 58.1022 35.9173H58.8229C59.2894 35.9173 59.7133 35.6824 59.9679 35.2983L64.8099 28.6694C62.2509 18.1919 54.2212 9.85928 43.9194 6.87022Z" fill="url(#paint3_radial_520_1725)"/>
<path d="M48.6471 47.852C48.6471 47.2987 48.1986 46.8501 47.6452 46.8501C47.0919 46.8501 46.6433 47.2987 46.6433 47.852V49.9569C46.6433 50.5102 47.0919 50.9588 47.6452 50.9588C48.1986 50.9588 48.6471 50.5102 48.6471 49.9569V47.852Z" fill="#1C51A0"/>
<path d="M48.9332 47.7593C48.9332 47.1734 48.4583 46.6984 47.8724 46.6984C47.2865 46.6984 46.8115 47.1734 46.8115 47.7593V49.7631C46.8115 50.349 47.2865 50.824 47.8724 50.824C48.4583 50.824 48.9332 50.349 48.9332 49.7631V47.7593Z" fill="url(#paint4_linear_520_1725)"/>
<defs>
<radialGradient id="paint0_radial_520_1725" cx="0" cy="0" r="1" gradientUnits="userSpaceOnUse" gradientTransform="translate(50.0571 26.4096) rotate(122.072) scale(45.5649 51.6396)">
<stop stop-color="#63D8FF"/>
<stop offset="1" stop-color="#3488EF"/>
</radialGradient>
<radialGradient id="paint1_radial_520_1725" cx="0" cy="0" r="1" gradientUnits="userSpaceOnUse" gradientTransform="translate(56.52 22.1011) rotate(137.749) scale(56.1922 74.3741)">
<stop offset="0.495708" stop-color="#465DC2" stop-opacity="0"/>
<stop offset="1" stop-color="#465DC2"/>
</radialGradient>
<linearGradient id="paint2_linear_520_1725" x1="42.4586" y1="14.6287" x2="25.6197" y2="46.9592" gradientUnits="userSpaceOnUse">
<stop stop-color="#40B9F0"/>
<stop offset="1" stop-color="#305CBD"/>
</linearGradient>
<radialGradient id="paint3_radial_520_1725" cx="0" cy="0" r="1" gradientUnits="userSpaceOnUse" gradientTransform="translate(53.2054 19.7809) rotate(133.768) scale(43.5998 40.2267)">
<stop offset="0.291562" stop-color="#78FFB5"/>
<stop offset="1" stop-color="#409A79"/>
</radialGradient>
<linearGradient id="paint4_linear_520_1725" x1="46.8115" y1="48.7614" x2="49.3945" y2="48.7614" gradientUnits="userSpaceOnUse">
<stop stop-color="#55CC9B"/>
<stop offset="1" stop-color="#53C999"/>
</linearGradient>
</defs>
</svg>
