<svg width="71" height="71" viewBox="0 0 71 71" fill="none" xmlns="http://www.w3.org/2000/svg">
<path d="M10.7718 19.2L6.80577 19.9506L2.85969 48.7102C1.36916 63.781 10.8025 72.1682 22.4546 69.963L53.463 64.0945C64.5168 61.8563 71.7473 51.1364 69.6439 40.0224C67.5239 28.8204 56.7241 21.458 45.5218 23.5781C36.7211 25.2437 30.2905 32.2664 28.9657 40.6326C28.9271 40.8768 28.7414 41.0731 28.4984 41.1191C28.2881 41.1589 28.0731 41.0787 27.9404 40.9107L10.7718 19.2Z" fill="url(#paint0_radial_520_1726)"/>
<path d="M10.772 19.1991L6.80591 19.9497L2.85921 48.7097C1.36836 63.7807 10.8016 72.1682 22.4539 69.9632L53.4627 64.0953C64.5167 61.8572 71.7475 51.1373 69.6443 40.0231C67.5244 28.8208 56.7247 21.4581 45.5223 23.578C36.7215 25.2434 30.2906 32.2661 28.9657 40.6324C28.927 40.8766 28.7413 41.073 28.4984 41.119C28.2881 41.1588 28.0731 41.0785 27.9404 40.9106L10.772 19.1991Z" fill="url(#paint1_linear_520_1726)"/>
<path d="M10.772 19.1991L6.80591 19.9497L2.85921 48.7097C1.36836 63.7807 10.8016 72.1682 22.4539 69.9632L53.4627 64.0953C64.5167 61.8572 71.7475 51.1373 69.6443 40.0231C67.5244 28.8208 56.7247 21.4581 45.5223 23.578C36.7215 25.2434 30.2906 32.2661 28.9657 40.6324C28.927 40.8766 28.7413 41.073 28.4984 41.119C28.2881 41.1588 28.0731 41.0785 27.9404 40.9106L10.772 19.1991Z" fill="url(#paint2_radial_520_1726)"/>
<path d="M10.772 19.1991L6.80591 19.9497L2.85921 48.7097C1.36836 63.7807 10.8016 72.1682 22.4539 69.9632L53.4627 64.0953C64.5167 61.8572 71.7475 51.1373 69.6443 40.0231C67.5244 28.8208 56.7247 21.4581 45.5223 23.578C36.7215 25.2434 30.2906 32.2661 28.9657 40.6324C28.927 40.8766 28.7413 41.073 28.4984 41.119C28.2881 41.1588 28.0731 41.0785 27.9404 40.9106L10.772 19.1991Z" fill="url(#paint3_radial_520_1726)"/>
<path d="M10.772 19.1991L6.80591 19.9497L2.85921 48.7097C1.36836 63.7807 10.8016 72.1682 22.4539 69.9632L53.4627 64.0953C64.5167 61.8572 71.7475 51.1373 69.6443 40.0231C67.5244 28.8208 56.7247 21.4581 45.5223 23.578C36.7215 25.2434 30.2906 32.2661 28.9657 40.6324C28.927 40.8766 28.7413 41.073 28.4984 41.119C28.2881 41.1588 28.0731 41.0785 27.9404 40.9106L10.772 19.1991Z" fill="url(#paint4_radial_520_1726)"/>
<path d="M10.772 19.1991L6.80591 19.9497L2.85921 48.7097C1.36836 63.7807 10.8016 72.1682 22.4539 69.9632L53.4627 64.0953C64.5167 61.8572 71.7475 51.1373 69.6443 40.0231C67.5244 28.8208 56.7247 21.4581 45.5223 23.578C36.7215 25.2434 30.2906 32.2661 28.9657 40.6324C28.927 40.8766 28.7413 41.073 28.4984 41.119C28.2881 41.1588 28.0731 41.0785 27.9404 40.9106L10.772 19.1991Z" fill="url(#paint5_radial_520_1726)"/>
<path d="M49.2982 64.8834L28.7453 41.0075C28.8612 40.9172 28.9417 40.784 28.9658 40.6324C30.2907 32.2661 36.7216 25.2435 45.5224 23.578C56.7249 21.4581 67.5246 28.8209 69.6444 40.0231C71.7476 51.1374 64.5168 61.8573 53.4629 64.0953L49.2982 64.8834Z" fill="url(#paint6_radial_520_1726)"/>
<path d="M7.92204 12.7156L6.7721 20.181L8.41757 22.2792C9.56753 23.7808 11.4654 24.5061 13.3237 24.1544L25.2672 21.8943C27.724 21.4294 29.6548 19.5236 30.1518 17.0732L30.2646 16.5168C31.1879 11.9638 28.3331 7.49922 23.8128 6.42698L19.1789 5.42093C13.5605 4.46922 8.84881 7.49418 7.92204 12.7156Z" fill="url(#paint7_linear_520_1726)"/>
<path d="M7.92204 12.7156L6.7721 20.181L8.41757 22.2792C9.56753 23.7808 11.4654 24.5061 13.3237 24.1544L25.2672 21.8943C27.724 21.4294 29.6548 19.5236 30.1518 17.0732L30.2646 16.5168C31.1879 11.9638 28.3331 7.49922 23.8128 6.42698L19.1789 5.42093C13.5605 4.46922 8.84881 7.49418 7.92204 12.7156Z" fill="url(#paint8_radial_520_1726)"/>
<path d="M7.92204 12.7156L6.7721 20.181L8.41757 22.2792C9.56753 23.7808 11.4654 24.5061 13.3237 24.1544L25.2672 21.8943C27.724 21.4294 29.6548 19.5236 30.1518 17.0732L30.2646 16.5168C31.1879 11.9638 28.3331 7.49922 23.8128 6.42698L19.1789 5.42093C13.5605 4.46922 8.84881 7.49418 7.92204 12.7156Z" fill="url(#paint9_radial_520_1726)"/>
<path d="M27.4608 42.5287L15.4344 66.636L48.7489 60.3311L29.9429 42.059L27.4608 42.5287Z" fill="url(#paint10_linear_520_1726)"/>
<path d="M27.4608 42.5287L15.4344 66.636L48.7489 60.3311L29.9429 42.059L27.4608 42.5287Z" fill="url(#paint11_radial_520_1726)"/>
<path d="M27.4608 42.5287L15.4344 66.636L48.7489 60.3311L29.9429 42.059L27.4608 42.5287Z" fill="url(#paint12_radial_520_1726)"/>
<path d="M17.551 8.96194L23.7634 10.251C24.8021 10.4261 26.2715 11.4783 26.7611 13.3418C27.2764 15.3023 26.1736 17.1687 25.391 17.8852" stroke="url(#paint13_linear_520_1726)" stroke-width="3.69046" stroke-linecap="round"/>
<path d="M22.8898 14.5392L11.1805 16.755C8.46341 17.2692 6.67756 19.8886 7.19174 22.6058C7.70591 25.3229 10.3254 27.1087 13.0425 26.5946L24.7518 24.3787C27.4689 23.8646 29.2548 21.2451 28.7406 18.528C28.2264 15.8108 25.6069 14.025 22.8898 14.5392Z" fill="url(#paint14_linear_520_1726)"/>
<path d="M22.8898 14.5392L11.1805 16.755C8.46341 17.2692 6.67756 19.8886 7.19174 22.6058C7.70591 25.3229 10.3254 27.1087 13.0425 26.5946L24.7518 24.3787C27.4689 23.8646 29.2548 21.2451 28.7406 18.528C28.2264 15.8108 25.6069 14.025 22.8898 14.5392Z" fill="url(#paint15_linear_520_1726)"/>
<path d="M22.8898 14.5392L11.1805 16.755C8.46341 17.2692 6.67756 19.8886 7.19174 22.6058C7.70591 25.3229 10.3254 27.1087 13.0425 26.5946L24.7518 24.3787C27.4689 23.8646 29.2548 21.2451 28.7406 18.528C28.2264 15.8108 25.6069 14.025 22.8898 14.5392Z" fill="url(#paint16_radial_520_1726)"/>
<path d="M22.8898 14.5392L11.1805 16.755C8.46341 17.2692 6.67756 19.8886 7.19174 22.6058C7.70591 25.3229 10.3254 27.1087 13.0425 26.5946L24.7518 24.3787C27.4689 23.8646 29.2548 21.2451 28.7406 18.528C28.2264 15.8108 25.6069 14.025 22.8898 14.5392Z" fill="url(#paint17_radial_520_1726)"/>
<path d="M15.9663 11.1177L15.267 16.0589L24.333 14.3433L15.9663 11.1177Z" fill="url(#paint18_radial_520_1726)"/>
<path d="M12.8684 11.2514L16.709 13.1459L17.1943 15.7101L12.5687 16.5855L12.8684 11.2514Z" fill="url(#paint19_linear_520_1726)"/>
<path d="M56.7893 49.9086C62.7407 48.7823 66.6521 43.0447 65.5258 37.0933C64.3995 31.1419 58.6618 27.2305 52.7105 28.3568C46.7591 29.4831 42.8476 35.2208 43.974 41.1721C45.1003 47.1235 50.8379 51.035 56.7893 49.9086Z" fill="url(#paint20_radial_520_1726)"/>
<path d="M13.4921 26.3213C14.0136 35.6605 15.4186 65.6671 15.4967 66.0798L25.9663 42.8361L13.4921 26.3213Z" fill="url(#paint21_radial_520_1726)"/>
<defs>
<radialGradient id="paint0_radial_520_1726" cx="0" cy="0" r="1" gradientUnits="userSpaceOnUse" gradientTransform="translate(62.0841 38.2834) rotate(145.247) scale(47.191 45.3508)">
<stop stop-color="#F4C097"/>
<stop offset="1" stop-color="#E4AB93"/>
</radialGradient>
<linearGradient id="paint1_linear_520_1726" x1="40.739" y1="71.2761" x2="35.8785" y2="45.5912" gradientUnits="userSpaceOnUse">
<stop stop-color="#B36E90"/>
<stop offset="1" stop-color="#B36E90" stop-opacity="0"/>
</linearGradient>
<radialGradient id="paint2_radial_520_1726" cx="0" cy="0" r="1" gradientUnits="userSpaceOnUse" gradientTransform="translate(28.5605 40.4216) rotate(-100.716) scale(6.38439 3.39935)">
<stop stop-color="#BA876A"/>
<stop offset="1" stop-color="#BA876A" stop-opacity="0"/>
</radialGradient>
<radialGradient id="paint3_radial_520_1726" cx="0" cy="0" r="1" gradientUnits="userSpaceOnUse" gradientTransform="translate(14.9207 25.4126) rotate(162.944) scale(4.29808 7.70508)">
<stop stop-color="#B6795D"/>
<stop offset="1" stop-color="#B6795D" stop-opacity="0"/>
</radialGradient>
<radialGradient id="paint4_radial_520_1726" cx="0" cy="0" r="1" gradientUnits="userSpaceOnUse" gradientTransform="translate(40.9077 49.8029) rotate(154.959) scale(39.602 58.4849)">
<stop offset="0.84569" stop-color="#DDA389" stop-opacity="0"/>
<stop offset="1" stop-color="#DDA389"/>
</radialGradient>
<radialGradient id="paint5_radial_520_1726" cx="0" cy="0" r="1" gradientUnits="userSpaceOnUse" gradientTransform="translate(24.1782 22.2178) rotate(99.2673) scale(25.1975 7.78234)">
<stop stop-color="#F4BF99"/>
<stop offset="1" stop-color="#F4BF99" stop-opacity="0"/>
</radialGradient>
<radialGradient id="paint6_radial_520_1726" cx="0" cy="0" r="1" gradientUnits="userSpaceOnUse" gradientTransform="translate(70.548 58.4363) rotate(-154.252) scale(60.8018 65.744)">
<stop offset="0.470339" stop-color="#BE8769" stop-opacity="0"/>
<stop offset="1" stop-color="#BE8769"/>
</radialGradient>
<linearGradient id="paint7_linear_520_1726" x1="12.2591" y1="21.2651" x2="32.7298" y2="11.293" gradientUnits="userSpaceOnUse">
<stop stop-color="#DBA389"/>
<stop offset="1" stop-color="#F0BA96"/>
</linearGradient>
<radialGradient id="paint8_radial_520_1726" cx="0" cy="0" r="1" gradientUnits="userSpaceOnUse" gradientTransform="translate(16.3812 20.7198) rotate(-40.912) scale(17.4263 21.4846)">
<stop offset="0.789681" stop-color="#FACAA1" stop-opacity="0"/>
<stop offset="1" stop-color="#FACAA1"/>
</radialGradient>
<radialGradient id="paint9_radial_520_1726" cx="0" cy="0" r="1" gradientUnits="userSpaceOnUse" gradientTransform="translate(19.0877 16.8821) rotate(-133.451) scale(13.5013 19.1661)">
<stop offset="0.742479" stop-color="#C79B7A" stop-opacity="0"/>
<stop offset="1" stop-color="#C79B7A"/>
</radialGradient>
<linearGradient id="paint10_linear_520_1726" x1="28.3951" y1="44.158" x2="31.7608" y2="61.9419" gradientUnits="userSpaceOnUse">
<stop stop-color="#D9A27D"/>
<stop offset="1" stop-color="#E3AC92" stop-opacity="0"/>
</linearGradient>
<radialGradient id="paint11_radial_520_1726" cx="0" cy="0" r="1" gradientUnits="userSpaceOnUse" gradientTransform="translate(22.2025 47.2017) rotate(23.2003) scale(5.37362 10.669)">
<stop stop-color="#FAC4A4"/>
<stop offset="1" stop-color="#FAC4A4" stop-opacity="0"/>
</radialGradient>
<radialGradient id="paint12_radial_520_1726" cx="0" cy="0" r="1" gradientUnits="userSpaceOnUse" gradientTransform="translate(37.7451 47.3372) rotate(133.19) scale(4.78611 20.3575)">
<stop offset="0.23109" stop-color="#C1835C"/>
<stop offset="1" stop-color="#C1835C" stop-opacity="0"/>
</radialGradient>
<linearGradient id="paint13_linear_520_1726" x1="26.8015" y1="13.3436" x2="16.8281" y2="11.0336" gradientUnits="userSpaceOnUse">
<stop stop-color="#FFD0AB"/>
<stop offset="1" stop-color="#FFD0AB" stop-opacity="0"/>
</linearGradient>
<linearGradient id="paint14_linear_520_1726" x1="13.2248" y1="22.6476" x2="27.1249" y2="20.0172" gradientUnits="userSpaceOnUse">
<stop stop-color="#D59D83"/>
<stop offset="1" stop-color="#F2C098"/>
</linearGradient>
<linearGradient id="paint15_linear_520_1726" x1="18.9883" y1="25.9677" x2="17.6216" y2="18.7457" gradientUnits="userSpaceOnUse">
<stop stop-color="#C27E71"/>
<stop offset="1" stop-color="#C27E71" stop-opacity="0"/>
</linearGradient>
<radialGradient id="paint16_radial_520_1726" cx="0" cy="0" r="1" gradientUnits="userSpaceOnUse" gradientTransform="translate(25.3607 18.5513) rotate(126.637) scale(3.97204 3.46662)">
<stop stop-color="#FDCCA9"/>
<stop offset="1" stop-color="#FDCCA9" stop-opacity="0"/>
</radialGradient>
<radialGradient id="paint17_radial_520_1726" cx="0" cy="0" r="1" gradientUnits="userSpaceOnUse" gradientTransform="translate(28.7406 18.528) rotate(169.284) scale(21.9313 17.3113)">
<stop offset="0.90282" stop-color="#DAA085" stop-opacity="0"/>
<stop offset="1" stop-color="#DAA085"/>
</radialGradient>
<radialGradient id="paint18_radial_520_1726" cx="0" cy="0" r="1" gradientUnits="userSpaceOnUse" gradientTransform="translate(18.9426 15.7428) rotate(-100.716) scale(2.98221 3.61945)">
<stop stop-color="#87462A"/>
<stop offset="1" stop-color="#AD6B49" stop-opacity="0"/>
</radialGradient>
<linearGradient id="paint19_linear_520_1726" x1="15.7411" y1="13.4073" x2="15.0141" y2="16.6264" gradientUnits="userSpaceOnUse">
<stop stop-color="#EDBB9E"/>
<stop offset="1" stop-color="#EDBB9E" stop-opacity="0"/>
</linearGradient>
<radialGradient id="paint20_radial_520_1726" cx="0" cy="0" r="1" gradientUnits="userSpaceOnUse" gradientTransform="translate(61.0555 34.0455) rotate(139.142) scale(18.2856 7.2685)">
<stop stop-color="#FFD2A9"/>
<stop offset="1" stop-color="#FFD2A9" stop-opacity="0"/>
</radialGradient>
<radialGradient id="paint21_radial_520_1726" cx="0" cy="0" r="1" gradientUnits="userSpaceOnUse" gradientTransform="translate(24.4081 49.1856) rotate(-112.716) scale(37.0273 12.9149)">
<stop stop-color="#FEC7A5"/>
<stop offset="1" stop-color="#FEC7A5" stop-opacity="0"/>
</radialGradient>
</defs>
</svg>
