<svg width="442" height="287" viewBox="0 0 442 287" fill="none" xmlns="http://www.w3.org/2000/svg">
<path d="M196.575 38.2901C196.575 41.4434 196.062 44.1476 195.035 46.4026C194.009 48.6392 192.368 50.3626 190.113 51.5726C187.876 52.7642 184.925 53.3601 181.258 53.3601C177.591 53.3601 174.63 52.7551 172.375 51.5451C170.139 50.3167 168.516 48.5567 167.508 46.2651C166.5 43.9551 165.995 41.1684 165.995 37.9051V13.0451H172.843V38.5926C172.843 41.6726 173.595 43.9459 175.098 45.4126C176.62 46.8792 178.673 47.6126 181.258 47.6126C183 47.6126 184.512 47.2917 185.795 46.6501C187.079 46.0084 188.069 45.0276 188.765 43.7076C189.462 42.3692 189.81 40.6642 189.81 38.5926V13.0451H196.575V38.2901ZM211.143 24.3751V52.8101H204.708V24.3751H211.143ZM211.226 13.0726V19.3976H204.598V13.0726H211.226Z" fill="black"/>
<path d="M11.1975 89.1805V117.615H4.7625V89.1805H11.1975ZM11.28 77.878V84.203H4.6525V77.878H11.28ZM29.9779 118.165C27.9979 118.165 26.1187 117.854 24.3404 117.23C22.5804 116.589 21.0954 115.59 19.8854 114.233C18.6937 112.876 17.942 111.125 17.6304 108.98H23.5154C23.772 110.025 24.2212 110.878 24.8629 111.538C25.5229 112.198 26.302 112.684 27.2004 112.995C28.0987 113.289 29.0154 113.435 29.9504 113.435C31.6554 113.435 33.0304 113.142 34.0754 112.555C35.1387 111.969 35.6704 111.061 35.6704 109.833C35.6704 108.935 35.377 108.22 34.7904 107.688C34.2037 107.156 33.2687 106.753 31.9854 106.478L26.5679 105.24C24.1662 104.709 22.232 103.829 20.7654 102.6C19.317 101.372 18.5837 99.6396 18.5654 97.403C18.547 95.7163 18.9687 94.213 19.8304 92.893C20.692 91.573 21.9754 90.5371 23.6804 89.7855C25.3854 89.0155 27.4937 88.6305 30.0054 88.6305C33.3237 88.6305 35.982 89.373 37.9804 90.858C39.9787 92.3246 41.0054 94.4238 41.0604 97.1555H35.3679C35.1662 95.9271 34.5887 94.9738 33.6354 94.2955C32.682 93.5988 31.4445 93.2505 29.9229 93.2505C28.3462 93.2505 27.0537 93.553 26.0454 94.158C25.037 94.763 24.5329 95.6888 24.5329 96.9355C24.5329 97.7971 24.9179 98.4755 25.6879 98.9705C26.4579 99.4655 27.6129 99.8871 29.1529 100.235L34.2679 101.473C35.7345 101.84 36.9354 102.335 37.8704 102.958C38.8054 103.581 39.5387 104.269 40.0704 105.02C40.602 105.754 40.9687 106.515 41.1704 107.303C41.3904 108.073 41.5004 108.788 41.5004 109.448C41.5004 111.281 41.0237 112.849 40.0704 114.15C39.1354 115.434 37.8062 116.424 36.0829 117.12C34.3595 117.817 32.3245 118.165 29.9779 118.165ZM47.8009 117.615V89.1805H54.3459V93.2505C54.7859 92.5171 55.3817 91.8113 56.1334 91.133C56.9034 90.4546 57.8475 89.9046 58.9659 89.483C60.0842 89.0613 61.395 88.8505 62.8984 88.8505C64.6584 88.8505 66.29 89.1988 67.7934 89.8955C69.315 90.5921 70.5342 91.683 71.4509 93.168C72.3859 94.653 72.8534 96.5688 72.8534 98.9155V117.615H66.1434V99.713C66.1434 97.843 65.63 96.4588 64.6034 95.5605C63.5767 94.6438 62.2842 94.1855 60.7259 94.1855C59.6625 94.1855 58.6542 94.3688 57.7009 94.7355C56.7475 95.0838 55.9684 95.6246 55.3634 96.358C54.7767 97.073 54.4834 97.9713 54.4834 99.053V117.615H47.8009ZM83.9483 77.8505L82.0233 92.068H78.5033L76.6608 77.8505H83.9483ZM106.778 93.9105H100.426L100.453 110.218C100.453 111.061 100.545 111.685 100.728 112.088C100.93 112.473 101.242 112.73 101.663 112.858C102.103 112.968 102.69 113.023 103.423 113.023H106.916V117.258C106.549 117.405 105.99 117.533 105.238 117.643C104.505 117.771 103.515 117.835 102.268 117.835C100.013 117.835 98.2626 117.542 97.016 116.955C95.7876 116.35 94.9351 115.498 94.4585 114.398C93.9818 113.298 93.7435 111.987 93.7435 110.465V93.9105H89.1235V89.1805H93.936L95.6135 80.738H100.426V89.153H106.778V93.9105ZM133.002 118.083C133.002 120.98 132.324 123.143 130.967 124.573C129.629 126.021 127.383 126.745 124.229 126.745C122.708 126.745 121.727 126.617 121.287 126.36C120.847 126.122 120.627 126.003 120.627 126.003L120.599 121.548L123.102 121.383C124.294 121.236 125.128 120.897 125.604 120.365C126.081 119.852 126.319 119.045 126.319 117.945V89.1805H133.002V118.083ZM133.112 77.878V84.203H126.182V77.878H133.112ZM151.117 118.165C149.724 118.165 148.376 117.964 147.075 117.56C145.791 117.139 144.636 116.534 143.61 115.745C142.583 114.939 141.767 113.949 141.162 112.775C140.557 111.602 140.255 110.236 140.255 108.678V89.1805H146.965V107.908C146.965 109.448 147.45 110.713 148.422 111.703C149.412 112.693 150.897 113.188 152.877 113.188C154.674 113.188 156.113 112.72 157.195 111.785C158.276 110.832 158.817 109.466 158.817 107.688V89.1805H165.472V117.615H160.33L159.587 112.06C159.239 113.619 158.625 114.847 157.745 115.745C156.883 116.625 155.865 117.249 154.692 117.615C153.537 117.982 152.345 118.165 151.117 118.165ZM183.323 118.165C181.343 118.165 179.463 117.854 177.685 117.23C175.925 116.589 174.44 115.59 173.23 114.233C172.038 112.876 171.287 111.125 170.975 108.98H176.86C177.117 110.025 177.566 110.878 178.208 111.538C178.868 112.198 179.647 112.684 180.545 112.995C181.443 113.289 182.36 113.435 183.295 113.435C185 113.435 186.375 113.142 187.42 112.555C188.483 111.969 189.015 111.061 189.015 109.833C189.015 108.935 188.722 108.22 188.135 107.688C187.548 107.156 186.613 106.753 185.33 106.478L179.913 105.24C177.511 104.709 175.577 103.829 174.11 102.6C172.662 101.372 171.928 99.6396 171.91 97.403C171.892 95.7163 172.313 94.213 173.175 92.893C174.037 91.573 175.32 90.5371 177.025 89.7855C178.73 89.0155 180.838 88.6305 183.35 88.6305C186.668 88.6305 189.327 89.373 191.325 90.858C193.323 92.3246 194.35 94.4238 194.405 97.1555H188.713C188.511 95.9271 187.933 94.9738 186.98 94.2955C186.027 93.5988 184.789 93.2505 183.268 93.2505C181.691 93.2505 180.398 93.553 179.39 94.158C178.382 94.763 177.878 95.6888 177.878 96.9355C177.878 97.7971 178.263 98.4755 179.033 98.9705C179.803 99.4655 180.958 99.8871 182.498 100.235L187.613 101.473C189.079 101.84 190.28 102.335 191.215 102.958C192.15 103.581 192.883 104.269 193.415 105.02C193.947 105.754 194.313 106.515 194.515 107.303C194.735 108.073 194.845 108.788 194.845 109.448C194.845 111.281 194.368 112.849 193.415 114.15C192.48 115.434 191.151 116.424 189.428 117.12C187.704 117.817 185.669 118.165 183.323 118.165ZM216.671 93.9105H210.319L210.346 110.218C210.346 111.061 210.438 111.685 210.621 112.088C210.823 112.473 211.134 112.73 211.556 112.858C211.996 112.968 212.583 113.023 213.316 113.023H216.809V117.258C216.442 117.405 215.883 117.533 215.131 117.643C214.398 117.771 213.408 117.835 212.161 117.835C209.906 117.835 208.155 117.542 206.909 116.955C205.68 116.35 204.828 115.498 204.351 114.398C203.874 113.298 203.636 111.987 203.636 110.465V93.9105H199.016V89.1805H203.829L205.506 80.738H210.319V89.153H216.671V93.9105Z" fill="black"/>
<path d="M147.25 196.408C145.435 196.408 143.804 196.078 142.355 195.418C140.925 194.74 139.798 193.777 138.973 192.53C138.166 191.265 137.763 189.735 137.763 187.938C137.763 184.803 138.89 182.438 141.145 180.843C143.419 179.248 147.04 178.414 152.008 178.34L156.243 178.23V176.305C156.243 174.802 155.794 173.629 154.895 172.785C154.015 171.924 152.64 171.502 150.77 171.52C149.395 171.539 148.13 171.869 146.975 172.51C145.839 173.134 145.087 174.188 144.72 175.673H139.028C139.138 173.73 139.697 172.107 140.705 170.805C141.732 169.485 143.135 168.505 144.913 167.863C146.691 167.203 148.745 166.873 151.073 166.873C153.786 166.873 155.995 167.23 157.7 167.945C159.405 168.66 160.661 169.696 161.468 171.053C162.275 172.391 162.678 174.014 162.678 175.92V195.858H157.04L156.518 190.743C155.491 192.888 154.19 194.373 152.613 195.198C151.055 196.005 149.267 196.408 147.25 196.408ZM149.423 191.87C150.248 191.87 151.064 191.724 151.87 191.43C152.677 191.119 153.41 190.706 154.07 190.193C154.73 189.661 155.253 189.075 155.638 188.433C156.041 187.791 156.243 187.122 156.243 186.425V181.943L152.75 181.998C151.027 182.016 149.524 182.2 148.24 182.548C146.957 182.896 145.949 183.455 145.215 184.225C144.5 184.977 144.143 185.985 144.143 187.25C144.143 188.699 144.647 189.835 145.655 190.66C146.664 191.467 147.92 191.87 149.423 191.87ZM185.521 196.408C184 196.408 182.698 196.206 181.616 195.803C180.535 195.4 179.627 194.877 178.894 194.235C178.179 193.594 177.601 192.906 177.161 192.173C176.74 191.421 176.419 190.706 176.199 190.028L175.429 195.858H170.506V154.993H177.216V171.575C177.51 171.025 177.913 170.475 178.426 169.925C178.958 169.375 179.6 168.871 180.351 168.413C181.103 167.955 181.956 167.588 182.909 167.313C183.881 167.02 184.953 166.873 186.126 166.873C189.665 166.873 192.461 168.129 194.514 170.64C196.567 173.152 197.594 176.773 197.594 181.503C197.594 184.491 197.136 187.104 196.219 189.34C195.321 191.577 193.973 193.319 192.176 194.565C190.398 195.794 188.18 196.408 185.521 196.408ZM184.146 191.485C186.145 191.485 187.786 190.688 189.069 189.093C190.352 187.498 190.994 184.913 190.994 181.338C190.994 178.221 190.389 175.865 189.179 174.27C187.969 172.657 186.264 171.85 184.064 171.85C182.487 171.85 181.195 172.208 180.186 172.923C179.196 173.638 178.454 174.701 177.959 176.113C177.482 177.525 177.235 179.266 177.216 181.338C177.216 184.968 177.766 187.571 178.866 189.148C179.985 190.706 181.745 191.485 184.146 191.485ZM215.336 196.408C212.623 196.408 210.258 195.83 208.241 194.675C206.224 193.502 204.657 191.825 203.539 189.643C202.439 187.461 201.889 184.84 201.889 181.778C201.889 178.808 202.42 176.205 203.484 173.968C204.565 171.731 206.114 169.99 208.131 168.743C210.148 167.496 212.559 166.873 215.364 166.873C218.077 166.873 220.433 167.469 222.431 168.66C224.429 169.852 225.969 171.557 227.051 173.775C228.151 175.994 228.701 178.661 228.701 181.778C228.701 184.656 228.179 187.195 227.134 189.395C226.107 191.577 224.594 193.291 222.596 194.538C220.616 195.785 218.196 196.408 215.336 196.408ZM215.364 191.32C216.904 191.32 218.169 190.899 219.159 190.055C220.167 189.212 220.909 188.057 221.386 186.59C221.881 185.124 222.129 183.455 222.129 181.585C222.129 179.844 221.909 178.24 221.469 176.773C221.047 175.306 220.332 174.133 219.324 173.253C218.334 172.355 217.014 171.905 215.364 171.905C213.805 171.905 212.513 172.318 211.486 173.143C210.478 173.95 209.717 175.086 209.204 176.553C208.709 178.001 208.461 179.679 208.461 181.585C208.461 183.309 208.681 184.913 209.121 186.398C209.579 187.865 210.313 189.056 211.321 189.973C212.329 190.871 213.677 191.32 215.364 191.32ZM244.711 196.408C243.318 196.408 241.97 196.206 240.669 195.803C239.385 195.381 238.23 194.776 237.204 193.988C236.177 193.181 235.361 192.191 234.756 191.018C234.151 189.845 233.849 188.479 233.849 186.92V167.423H240.559V186.15C240.559 187.69 241.045 188.955 242.016 189.945C243.006 190.935 244.491 191.43 246.471 191.43C248.268 191.43 249.707 190.963 250.789 190.028C251.87 189.075 252.411 187.709 252.411 185.93V167.423H259.066V195.858H253.924L253.181 190.303C252.833 191.861 252.219 193.09 251.339 193.988C250.477 194.868 249.46 195.491 248.286 195.858C247.131 196.225 245.94 196.408 244.711 196.408ZM282.389 172.153H276.037L276.064 188.46C276.064 189.304 276.156 189.927 276.339 190.33C276.541 190.715 276.853 190.972 277.274 191.1C277.714 191.21 278.301 191.265 279.034 191.265H282.527V195.5C282.16 195.647 281.601 195.775 280.849 195.885C280.116 196.014 279.126 196.078 277.879 196.078C275.624 196.078 273.873 195.785 272.627 195.198C271.398 194.593 270.546 193.74 270.069 192.64C269.593 191.54 269.354 190.23 269.354 188.708V172.153H264.734V167.423H269.547L271.224 158.98H276.037V167.395H282.389V172.153ZM311.528 196.408C310.134 196.408 308.787 196.206 307.485 195.803C306.202 195.381 305.047 194.776 304.02 193.988C302.994 193.181 302.178 192.191 301.573 191.018C300.968 189.845 300.665 188.479 300.665 186.92V167.423H307.375V186.15C307.375 187.69 307.861 188.955 308.833 189.945C309.823 190.935 311.308 191.43 313.288 191.43C315.084 191.43 316.524 190.963 317.605 190.028C318.687 189.075 319.228 187.709 319.228 185.93V167.423H325.883V195.858H320.74L319.998 190.303C319.649 191.861 319.035 193.09 318.155 193.988C317.294 194.868 316.276 195.491 315.103 195.858C313.948 196.225 312.756 196.408 311.528 196.408ZM343.733 196.408C341.753 196.408 339.874 196.096 338.096 195.473C336.336 194.831 334.851 193.832 333.641 192.475C332.449 191.119 331.697 189.368 331.386 187.223H337.271C337.527 188.268 337.977 189.12 338.618 189.78C339.278 190.44 340.057 190.926 340.956 191.238C341.854 191.531 342.771 191.678 343.706 191.678C345.411 191.678 346.786 191.385 347.831 190.798C348.894 190.211 349.426 189.304 349.426 188.075C349.426 187.177 349.132 186.462 348.546 185.93C347.959 185.399 347.024 184.995 345.741 184.72L340.323 183.483C337.922 182.951 335.987 182.071 334.521 180.843C333.072 179.615 332.339 177.882 332.321 175.645C332.302 173.959 332.724 172.455 333.586 171.135C334.447 169.815 335.731 168.78 337.436 168.028C339.141 167.258 341.249 166.873 343.761 166.873C347.079 166.873 349.737 167.615 351.736 169.1C353.734 170.567 354.761 172.666 354.816 175.398H349.123C348.922 174.17 348.344 173.216 347.391 172.538C346.437 171.841 345.2 171.493 343.678 171.493C342.102 171.493 340.809 171.795 339.801 172.4C338.792 173.005 338.288 173.931 338.288 175.178C338.288 176.04 338.673 176.718 339.443 177.213C340.213 177.708 341.368 178.13 342.908 178.478L348.023 179.715C349.49 180.082 350.691 180.577 351.626 181.2C352.561 181.824 353.294 182.511 353.826 183.263C354.357 183.996 354.724 184.757 354.926 185.545C355.146 186.315 355.256 187.03 355.256 187.69C355.256 189.524 354.779 191.091 353.826 192.393C352.891 193.676 351.562 194.666 349.838 195.363C348.115 196.06 346.08 196.408 343.733 196.408ZM368.459 167.423V195.858H362.024V167.423H368.459ZM368.541 156.12V162.445H361.914V156.12H368.541ZM376.81 195.858V167.423H383.355V171.493C383.795 170.76 384.391 170.054 385.143 169.375C385.913 168.697 386.857 168.147 387.975 167.725C389.093 167.304 390.404 167.093 391.908 167.093C393.668 167.093 395.299 167.441 396.803 168.138C398.324 168.835 399.543 169.925 400.46 171.41C401.395 172.895 401.863 174.811 401.863 177.158V195.858H395.153V177.955C395.153 176.085 394.639 174.701 393.613 173.803C392.586 172.886 391.293 172.428 389.735 172.428C388.672 172.428 387.663 172.611 386.71 172.978C385.757 173.326 384.978 173.867 384.373 174.6C383.786 175.315 383.493 176.214 383.493 177.295V195.858H376.81ZM421.659 205.263C416.874 205.263 413.198 204.621 410.632 203.338C408.065 202.055 406.782 200.295 406.782 198.058C406.782 197.05 407.029 196.206 407.524 195.528C408.019 194.85 408.606 194.29 409.284 193.85C409.963 193.41 410.586 193.071 411.154 192.833C411.723 192.595 412.089 192.42 412.254 192.31C411.943 192.127 411.53 191.889 411.017 191.595C410.503 191.302 410.036 190.899 409.614 190.385C409.211 189.872 409.009 189.203 409.009 188.378C409.009 187.425 409.458 186.545 410.357 185.738C411.273 184.931 412.639 184.354 414.454 184.005C412.676 183.144 411.31 181.98 410.357 180.513C409.403 179.046 408.927 177.525 408.927 175.948C408.927 174.078 409.468 172.474 410.549 171.135C411.649 169.797 413.171 168.77 415.114 168.055C417.076 167.34 419.34 166.983 421.907 166.983C423.813 166.983 425.39 167.194 426.637 167.615C427.883 168.037 429.048 168.605 430.129 169.32C430.496 169.174 431.009 168.972 431.669 168.715C432.348 168.44 433.081 168.147 433.869 167.835C434.658 167.505 435.409 167.194 436.124 166.9C436.858 166.589 437.481 166.332 437.994 166.13L437.939 171.658L433.017 172.538C433.255 173.07 433.438 173.647 433.567 174.27C433.713 174.894 433.787 175.444 433.787 175.92C433.787 177.57 433.319 179.101 432.384 180.513C431.468 181.906 430.083 183.025 428.232 183.868C426.398 184.711 424.107 185.133 421.357 185.133C421.082 185.133 420.706 185.124 420.229 185.105C419.753 185.087 419.368 185.069 419.074 185.05C417.589 185.105 416.572 185.28 416.022 185.573C415.472 185.866 415.197 186.187 415.197 186.535C415.197 187.03 415.609 187.36 416.434 187.525C417.259 187.69 418.579 187.837 420.394 187.965C421.036 188.002 421.879 188.048 422.924 188.103C423.969 188.158 425.133 188.231 426.417 188.323C429.662 188.525 432.118 189.34 433.787 190.77C435.455 192.182 436.289 194.015 436.289 196.27C436.289 198.892 435.079 201.046 432.659 202.733C430.239 204.42 426.573 205.263 421.659 205.263ZM422.787 201.33C425.188 201.33 426.967 201 428.122 200.34C429.277 199.68 429.854 198.709 429.854 197.425C429.854 196.435 429.46 195.629 428.672 195.005C427.883 194.382 426.71 194.015 425.152 193.905L417.974 193.465C417.186 193.41 416.434 193.557 415.719 193.905C415.023 194.235 414.454 194.703 414.014 195.308C413.574 195.895 413.354 196.545 413.354 197.26C413.354 198.599 414.124 199.607 415.664 200.285C417.204 200.982 419.578 201.33 422.787 201.33ZM421.577 181.2C423.318 181.2 424.73 180.76 425.812 179.88C426.893 178.982 427.434 177.717 427.434 176.085C427.434 174.399 426.893 173.088 425.812 172.153C424.73 171.2 423.318 170.723 421.577 170.723C419.798 170.723 418.359 171.2 417.259 172.153C416.178 173.106 415.637 174.417 415.637 176.085C415.637 177.662 416.159 178.909 417.204 179.825C418.249 180.742 419.707 181.2 421.577 181.2Z" fill="black"/>
<path d="M139.821 233.945H166.132L166.105 239.675H146.691V251.245H163.824V256.891H146.691V274.163H139.821V233.945Z" fill="#FF3344"/>
<path d="M179.394 245.404V274.163H172.886V245.404H179.394ZM179.477 233.973V240.37H172.774V233.973H179.477Z" fill="#FFB805"/>
<path d="M200.638 283.675C195.799 283.675 192.081 283.026 189.485 281.728C186.89 280.43 185.592 278.65 185.592 276.388C185.592 275.368 185.842 274.515 186.343 273.829C186.843 273.143 187.436 272.577 188.123 272.132C188.809 271.687 189.439 271.344 190.014 271.103C190.589 270.862 190.959 270.686 191.126 270.575C190.811 270.39 190.394 270.148 189.875 269.852C189.356 269.555 188.883 269.147 188.456 268.628C188.048 268.109 187.844 267.432 187.844 266.598C187.844 265.634 188.299 264.743 189.207 263.928C190.134 263.112 191.516 262.528 193.351 262.175C191.553 261.304 190.171 260.127 189.207 258.643C188.243 257.16 187.761 255.621 187.761 254.026C187.761 252.135 188.308 250.512 189.402 249.159C190.514 247.805 192.053 246.767 194.019 246.044C196.003 245.321 198.293 244.959 200.889 244.959C202.817 244.959 204.412 245.172 205.673 245.599C206.933 246.025 208.111 246.6 209.205 247.323C209.576 247.175 210.095 246.971 210.762 246.711C211.448 246.433 212.19 246.137 212.987 245.821C213.785 245.488 214.545 245.172 215.268 244.876C216.01 244.56 216.64 244.301 217.159 244.097L217.104 249.687L212.125 250.577C212.366 251.115 212.552 251.699 212.681 252.33C212.83 252.96 212.904 253.516 212.904 253.998C212.904 255.667 212.431 257.215 211.486 258.643C210.558 260.052 209.158 261.183 207.286 262.036C205.432 262.889 203.114 263.316 200.332 263.316C200.054 263.316 199.674 263.306 199.192 263.288C198.71 263.269 198.321 263.251 198.024 263.232C196.522 263.288 195.493 263.464 194.937 263.761C194.38 264.057 194.102 264.382 194.102 264.734C194.102 265.235 194.52 265.569 195.354 265.735C196.188 265.902 197.523 266.051 199.359 266.18C200.008 266.218 200.861 266.264 201.918 266.32C202.975 266.375 204.152 266.449 205.45 266.542C208.732 266.746 211.217 267.571 212.904 269.017C214.591 270.445 215.435 272.299 215.435 274.58C215.435 277.232 214.211 279.41 211.764 281.116C209.316 282.822 205.608 283.675 200.638 283.675ZM201.779 279.698C204.208 279.698 206.006 279.364 207.174 278.696C208.343 278.029 208.927 277.046 208.927 275.748C208.927 274.747 208.528 273.931 207.731 273.301C206.933 272.67 205.747 272.299 204.171 272.188L196.911 271.743C196.114 271.687 195.354 271.836 194.631 272.188C193.926 272.522 193.351 272.995 192.906 273.607C192.461 274.2 192.239 274.858 192.239 275.581C192.239 276.935 193.018 277.955 194.575 278.641C196.133 279.345 198.534 279.698 201.779 279.698ZM200.555 259.338C202.316 259.338 203.744 258.893 204.838 258.003C205.932 257.095 206.479 255.815 206.479 254.165C206.479 252.459 205.932 251.134 204.838 250.188C203.744 249.224 202.316 248.742 200.555 248.742C198.756 248.742 197.301 249.224 196.188 250.188C195.094 251.152 194.547 252.478 194.547 254.165C194.547 255.76 195.076 257.021 196.133 257.948C197.19 258.875 198.664 259.338 200.555 259.338Z" fill="#03D383"/>
<path d="M222.593 274.163V245.404H229.185V249.52C230.019 248.26 231.15 247.166 232.578 246.239C234.024 245.311 235.86 244.848 238.085 244.848C239.105 244.848 240.134 245.024 241.172 245.376C242.229 245.729 243.203 246.248 244.093 246.934C245.001 247.62 245.724 248.473 246.262 249.493C247.171 248.139 248.376 247.027 249.878 246.155C251.398 245.284 253.104 244.848 254.995 244.848C256.034 244.848 257.1 245.015 258.194 245.349C259.306 245.682 260.326 246.239 261.253 247.017C262.18 247.796 262.931 248.862 263.506 250.216C264.081 251.551 264.368 253.229 264.368 255.25V274.163H257.61V256.057C257.61 254.629 257.359 253.507 256.859 252.691C256.358 251.875 255.709 251.301 254.912 250.967C254.133 250.614 253.299 250.438 252.409 250.438C251.611 250.438 250.777 250.596 249.905 250.911C249.053 251.226 248.32 251.746 247.708 252.469C247.115 253.192 246.818 254.165 246.818 255.389V274.163H240.06V254.972C240.06 253.971 239.8 253.136 239.281 252.469C238.762 251.801 238.103 251.301 237.306 250.967C236.527 250.614 235.73 250.438 234.914 250.438C234.08 250.438 233.227 250.614 232.355 250.967C231.502 251.319 230.789 251.857 230.214 252.58C229.639 253.303 229.352 254.239 229.352 255.389V274.163H222.593Z" fill="#01BEFF"/>
<path d="M279.69 274.719C277.855 274.719 276.204 274.385 274.74 273.718C273.293 273.032 272.153 272.058 271.319 270.797C270.503 269.518 270.095 267.97 270.095 266.153C270.095 262.982 271.235 260.59 273.516 258.977C275.815 257.364 279.477 256.52 284.502 256.446L288.785 256.335V254.388C288.785 252.867 288.331 251.681 287.422 250.828C286.532 249.956 285.142 249.53 283.25 249.548C281.86 249.567 280.58 249.901 279.412 250.55C278.262 251.18 277.502 252.246 277.131 253.748H271.374C271.485 251.783 272.051 250.142 273.071 248.825C274.109 247.49 275.528 246.498 277.326 245.849C279.125 245.182 281.201 244.848 283.556 244.848C286.3 244.848 288.535 245.209 290.259 245.933C291.984 246.656 293.254 247.703 294.07 249.075C294.885 250.429 295.293 252.07 295.293 253.998V274.163H289.592L289.063 268.99C288.025 271.159 286.708 272.661 285.114 273.495C283.538 274.311 281.73 274.719 279.69 274.719ZM281.887 270.13C282.722 270.13 283.547 269.982 284.363 269.685C285.179 269.37 285.92 268.953 286.588 268.433C287.255 267.896 287.784 267.302 288.173 266.653C288.581 266.004 288.785 265.328 288.785 264.623V260.089L285.253 260.145C283.51 260.164 281.989 260.349 280.692 260.701C279.394 261.054 278.374 261.619 277.632 262.398C276.909 263.158 276.547 264.178 276.547 265.457C276.547 266.922 277.057 268.072 278.077 268.906C279.097 269.722 280.367 270.13 281.887 270.13Z" fill="#AF4DFF"/>
<circle cx="76.9631" cy="33.3101" r="25" fill="#FF742E"/>
<path d="M86.1288 34.7243C86.9099 33.9432 86.9099 32.6769 86.1288 31.8959L73.4009 19.1679C72.6198 18.3869 71.3535 18.3869 70.5725 19.1679C69.7914 19.949 69.7914 21.2153 70.5725 21.9964L81.8862 33.3101L70.5725 44.6238C69.7914 45.4048 69.7914 46.6712 70.5725 47.4522C71.3535 48.2332 72.6198 48.2332 73.4009 47.4522L86.1288 34.7243ZM14.3784 35.3101L84.7146 35.3101L84.7146 31.3101L14.3784 31.3101L14.3784 35.3101Z" fill="black"/>
<circle cx="9.37842" cy="33.3101" r="7" stroke="black" stroke-width="4"/>
<circle cx="258.235" cy="98.1155" r="20" fill="#0062F4"/>
<circle cx="338.829" cy="98.1155" r="20" fill="#03D383"/>
<path d="M291.032 90.6155L306.032 105.615" stroke="black" stroke-width="7" stroke-linecap="round"/>
<path d="M306.032 91.0837L291.032 105.615" stroke="black" stroke-width="7" stroke-linecap="round"/>
<path d="M10.9869 182.488C10.9869 168.501 22.3252 157.163 36.3118 157.163H94.027C105.733 157.163 115.222 166.652 115.222 178.358C115.222 190.064 105.733 199.553 94.027 199.553H4.37842C8.62313 195.045 10.9869 189.087 10.9869 182.896V182.488Z" fill="#FFB805"/>
<circle cx="38.262" cy="178.358" r="15" fill="#FF3A01"/>
<circle cx="90.5483" cy="178.358" r="15" fill="white"/>
<circle cx="90.5483" cy="178.358" r="7" fill="white" stroke="black" stroke-width="4"/>
<path d="M13.5061 178.358H17.2261" stroke="black" stroke-width="4" stroke-linecap="round"/>
<path d="M25.3232 178.358H35.1965" stroke="black" stroke-width="4" stroke-linecap="round"/>
<path d="M48.9973 178.358H83.3718" stroke="black" stroke-width="4" stroke-linecap="round"/>
<path d="M328.097 229.057C329.344 225.47 333.263 223.574 336.85 224.822L343.299 227.065L338.781 240.053L332.332 237.81C328.746 236.562 326.849 232.644 328.097 229.057Z" fill="#FF3344" stroke="black" stroke-width="3" stroke-linejoin="round"/>
<path d="M323.332 242.801C324.579 239.214 328.498 237.318 332.085 238.565L338.534 240.808L334.016 253.797L327.567 251.554C323.981 250.306 322.085 246.387 323.332 242.801Z" fill="#A259FF" stroke="black" stroke-width="3" stroke-linejoin="round"/>
<path d="M318.555 256.536C319.803 252.947 323.727 251.043 327.311 252.289L333.76 254.532L331.494 261.049C330.251 264.623 326.345 266.513 322.771 265.27C319.2 264.028 317.311 260.113 318.555 256.536Z" fill="#03DD89" stroke="black" stroke-width="3" stroke-linejoin="round"/>
<path d="M343.977 227.3L350.426 229.543C354.012 230.791 355.908 234.71 354.661 238.296C353.414 241.883 349.495 243.779 345.908 242.532L339.459 240.289L343.977 227.3Z" fill="#FF5260" stroke="black" stroke-width="3" stroke-linejoin="round"/>
<circle cx="344.134" cy="251.095" r="6.45994" transform="rotate(19.1782 344.134 251.095)" fill="#33CFFF" stroke="black" stroke-width="3" stroke-linejoin="round"/>
</svg>
