<svg width="201" height="91" viewBox="0 0 201 91" fill="none" xmlns="http://www.w3.org/2000/svg">
<ellipse cx="123.997" cy="25.9091" rx="25" ry="25" fill="#FF742E"/>
<path d="M133.162 27.3232C133.943 26.5421 133.943 25.2758 133.162 24.4947L120.434 11.7668C119.653 10.9858 118.386 10.9858 117.605 11.7668C116.824 12.5479 116.824 13.8142 117.605 14.5952L128.919 25.9089L117.605 37.2226C116.824 38.0037 116.824 39.27 117.605 40.0511C118.386 40.8321 119.653 40.8321 120.434 40.0511L133.162 27.3232ZM61.4111 27.9089L131.747 27.9089L131.747 23.9089L61.4111 23.9089L61.4111 27.9089Z" fill="black"/>
<path d="M56.4111 32.9094C60.2771 32.9094 63.4111 29.7754 63.4111 25.9094C63.4111 22.0434 60.2771 18.9094 56.4111 18.9094C52.5451 18.9094 49.4111 22.0434 49.4111 25.9094C49.4111 29.7754 52.5451 32.9094 56.4111 32.9094Z" stroke="black" stroke-width="4"/>
<ellipse cx="71.4111" cy="70.9092" rx="20" ry="20" fill="#00D47B"/>
</svg>
