<svg width="104" height="91" viewBox="0 0 104 91" fill="none" xmlns="http://www.w3.org/2000/svg">
<circle cx="77.5732" cy="25.7407" r="25" fill="#FF742E"/>
<path d="M86.7387 27.1549C87.5197 26.3739 87.5197 25.1076 86.7387 24.3265L74.0108 11.5986C73.2297 10.8175 71.9634 10.8175 71.1823 11.5986C70.4013 12.3796 70.4013 13.646 71.1823 14.427L82.496 25.7407L71.1823 37.0544C70.4013 37.8355 70.4013 39.1018 71.1823 39.8829C71.9634 40.6639 73.2297 40.6639 74.0108 39.8829L86.7387 27.1549ZM14.9883 27.7407L85.3245 27.7407L85.3245 23.7407L14.9883 23.7407L14.9883 27.7407Z" fill="black"/>
<circle cx="9.98828" cy="25.7407" r="7" stroke="black" stroke-width="4"/>
<circle cx="24.9883" cy="70.7407" r="20" fill="#00D47B"/>
</svg>
