<svg width="201" height="121" viewBox="0 0 201 121" fill="none" xmlns="http://www.w3.org/2000/svg">
<rect x="65.3389" y="2.4082" width="26" height="26" rx="2.6632" stroke="black" stroke-width="4" stroke-linejoin="round"/>
<circle cx="123.271" cy="62.4309" r="13" stroke="black" stroke-width="4"/>
<circle cx="78.3389" cy="105.525" r="13" stroke="black" stroke-width="4"/>
<path d="M96.4473 62.4309H110.111" stroke="black" stroke-width="4" stroke-linecap="round"/>
<rect x="57.126" y="62.4309" width="30" height="30" rx="3" transform="rotate(-45 57.126 62.4309)" fill="#389BF8"/>
<path d="M78.7817 30.561L78.7817 91.561" stroke="black" stroke-width="4" stroke-linecap="round"/>
<path d="M123.271 76.4309V91.2137" stroke="black" stroke-width="4" stroke-linecap="round"/>
<path d="M103.54 96.1189C102.951 93.2287 105.159 90.5247 108.109 90.5247H134.221C136.438 90.5247 138.348 92.0849 138.791 94.2568L143.003 114.93C143.592 117.821 141.383 120.525 138.434 120.525H112.321C110.105 120.525 108.195 118.964 107.752 116.792L103.54 96.1189Z" fill="#FFB805"/>
<path d="M144.282 16.061H93.7817" stroke="black" stroke-width="4" stroke-linecap="round"/>
<circle cx="118.106" cy="15.3849" r="10.8239" transform="rotate(-90 118.106 15.3849)" fill="#00D47B"/>
</svg>
