<svg width="133" height="128" viewBox="0 0 133 128" fill="none" xmlns="http://www.w3.org/2000/svg">
<circle cx="121.676" cy="40.0409" r="10.8239" transform="rotate(-90 121.676 40.0409)" fill="#00D47B"/>
<rect x="17.3516" y="12.8257" width="58.5177" height="42.7209" rx="4" transform="rotate(-9.54721 17.3516 12.8257)" fill="#FFB805"/>
<rect x="15.5454" y="82.4492" width="85.1749" height="39.2009" rx="19.6005" transform="rotate(-9.54721 15.5454 82.4492)" fill="#E09EFF"/>
<rect x="15.5454" y="82.4492" width="85.1748" height="39.2009" transform="rotate(-9.54721 15.5454 82.4492)" stroke="black" stroke-width="4"/>
<rect x="11.5132" y="79.5781" width="7" height="7" rx="1" transform="rotate(-9.54721 11.5132 79.5781)" fill="white" stroke="black" stroke-width="3"/>
<rect x="18.4165" y="118.236" width="7" height="7" rx="1" transform="rotate(-9.54721 18.4165 118.236)" fill="white" stroke="black" stroke-width="3"/>
<rect x="94.9326" y="65.4512" width="7" height="7" rx="1" transform="rotate(-9.54721 94.9326 65.4512)" fill="white" stroke="black" stroke-width="3"/>
<rect x="102.01" y="103.943" width="7" height="7" rx="1" transform="rotate(-9.54721 102.01 103.943)" fill="white" stroke="black" stroke-width="3"/>
<path d="M12.0771 18.1196L27.0771 3.11963" stroke="black" stroke-width="4" stroke-linecap="round"/>
<path d="M12.5454 3.11963L27.0771 18.1196" stroke="black" stroke-width="4" stroke-linecap="round"/>
<path d="M27.8521 31.2168L52.8521 27.2168M30.3521 44.7168L73.8521 37.7168" stroke="black" stroke-width="4" stroke-linecap="round"/>
</svg>
