<svg width="201" height="127" viewBox="0 0 201 127" fill="none" xmlns="http://www.w3.org/2000/svg">
<circle cx="155.253" cy="39.7428" r="10.8239" transform="rotate(-90 155.253 39.7428)" fill="#00D47B"/>
<rect x="50.928" y="12.5278" width="58.5177" height="42.7209" rx="4" transform="rotate(-9.54721 50.928 12.5278)" fill="#FFB805"/>
<rect x="49.1221" y="82.1514" width="85.1749" height="39.2009" rx="19.6005" transform="rotate(-9.54721 49.1221 82.1514)" fill="#E09EFF"/>
<rect x="49.1221" y="82.1514" width="85.1748" height="39.2009" transform="rotate(-9.54721 49.1221 82.1514)" stroke="black" stroke-width="4"/>
<rect x="45.0901" y="79.2803" width="7" height="7" rx="1" transform="rotate(-9.54721 45.0901 79.2803)" fill="white" stroke="black" stroke-width="3"/>
<rect x="51.9932" y="117.938" width="7" height="7" rx="1" transform="rotate(-9.54721 51.9932 117.938)" fill="white" stroke="black" stroke-width="3"/>
<rect x="128.509" y="65.1531" width="7" height="7" rx="1" transform="rotate(-9.54721 128.509 65.1531)" fill="white" stroke="black" stroke-width="3"/>
<rect x="135.587" y="103.645" width="7" height="7" rx="1" transform="rotate(-9.54721 135.587 103.645)" fill="white" stroke="black" stroke-width="3"/>
<path d="M45.6541 17.822L60.6541 2.82202" stroke="black" stroke-width="4" stroke-linecap="round"/>
<path d="M46.1223 2.82202L60.654 17.822" stroke="black" stroke-width="4" stroke-linecap="round"/>
<path d="M61.4287 30.9189L86.4287 26.9189M63.9287 44.4189L107.429 37.4189" stroke="black" stroke-width="4" stroke-linecap="round"/>
</svg>
