<svg width="134" height="101" viewBox="0 0 134 101" fill="none" xmlns="http://www.w3.org/2000/svg">
<rect x="13.5415" y="12.3843" width="110.575" height="79.2742" rx="6" fill="#E09EFF"/>
<rect x="2.0415" y="1.88428" width="107.575" height="76.2742" rx="4.5" stroke="black" stroke-width="3"/>
<circle cx="24.8281" cy="22.4385" r="3" fill="black"/>
<circle cx="38.1455" cy="22.4385" r="3" fill="black"/>
<circle cx="51.4624" cy="22.4385" r="3" fill="black"/>
<path d="M39.3932 53.0804C40.0066 52.7888 40.6939 53.31 40.5787 53.9793L38.2331 67.603C38.1004 68.374 37.0771 68.5586 36.6833 67.8826L33.5655 62.5303C33.4531 62.3373 33.2684 62.1972 33.0522 62.141L27.0567 60.5829C26.2995 60.3861 26.2011 59.351 26.9077 59.0151L39.3932 53.0804Z" fill="#FFC60B" stroke="black" stroke-width="2.5"/>
<path d="M118.084 84.2733C117.948 83.6077 118.619 83.066 119.241 83.3389L131.9 88.8933C132.617 89.2076 132.55 90.2453 131.799 90.4649L125.854 92.2033C125.639 92.266 125.459 92.4116 125.352 92.6079L122.398 98.0524C122.024 98.7401 120.996 98.5865 120.84 97.8198L118.084 84.2733Z" fill="#FFC60B" stroke="black" stroke-width="2.5"/>
</svg>
