<svg width="201" height="100" viewBox="0 0 201 100" fill="none" xmlns="http://www.w3.org/2000/svg">
<rect x="46.9702" y="12" width="110.575" height="79.2742" rx="6" fill="#E09EFF"/>
<rect x="35.4702" y="1.5" width="107.575" height="76.2742" rx="4.5" stroke="black" stroke-width="3"/>
<circle cx="58.2568" cy="22.0543" r="3" fill="black"/>
<circle cx="71.5742" cy="22.0543" r="3" fill="black"/>
<circle cx="84.8911" cy="22.0543" r="3" fill="black"/>
<path d="M72.8219 52.6959C73.4353 52.4043 74.1226 52.9254 74.0074 53.5948L71.6618 67.2185C71.5291 67.9895 70.5058 68.1741 70.112 67.498L66.9942 62.1457C66.8818 61.9528 66.6971 61.8127 66.4809 61.7565L60.4854 60.1984C59.7282 60.0016 59.6298 58.9665 60.3364 58.6306L72.8219 52.6959Z" fill="#FFC60B" stroke="black" stroke-width="2.5"/>
<path d="M151.512 83.889C151.377 83.2234 152.048 82.6817 152.67 82.9546L165.329 88.509C166.046 88.8234 165.979 89.861 165.228 90.0806L159.282 91.819C159.068 91.8817 158.888 92.0273 158.781 92.2236L155.826 97.6681C155.453 98.3558 154.425 98.2022 154.269 97.4355L151.512 83.889Z" fill="#FFC60B" stroke="black" stroke-width="2.5"/>
</svg>
