<svg width="201" height="116" viewBox="0 0 201 116" fill="none" xmlns="http://www.w3.org/2000/svg">
<path d="M79.4229 32.6505C79.4229 25.2518 85.4207 19.2539 92.8194 19.2539H106.139V46.0471H92.8194C85.4207 46.0471 79.4229 40.0492 79.4229 32.6505V32.6505Z" fill="#FF4D5B"/>
<path d="M79.3931 59.4437C79.3931 52.045 85.3909 46.0471 92.7896 46.0471H106.11V72.8403H92.7896C85.3909 72.8403 79.3931 66.8424 79.3931 59.4437V59.4437Z" fill="#E09EFF"/>
<path d="M79.3931 86.1684C79.3931 78.7697 85.3909 72.7527 92.7896 72.7527H106.11V86.1876C106.11 93.5651 100.129 99.5458 92.7513 99.5458V99.5458C85.3738 99.5458 79.3931 93.546 79.3931 86.1684V86.1684Z" fill="#03DD89"/>
<path d="M106.14 19.2539H119.46C126.858 19.2539 132.856 25.2518 132.856 32.6505V32.6505C132.856 40.0492 126.858 46.0471 119.46 46.0471H106.14V19.2539Z" fill="#FF5D6B"/>
<circle cx="119.497" cy="59.3999" r="13.3528" fill="#33CFFF"/>
<path d="M88.0434 13.7664H101.319V40.4956H88.0434C80.6623 40.4956 74.6788 34.512 74.6788 27.131C74.6788 19.7499 80.6623 13.7664 88.0434 13.7664Z" stroke="black" stroke-width="4.2062" stroke-linejoin="round"/>
<path d="M88.0692 40.6297H101.345V67.3588H88.0692C80.6882 67.3588 74.7047 61.3753 74.7047 53.9943C74.7047 46.6132 80.6882 40.6297 88.0692 40.6297Z" stroke="black" stroke-width="4.2062" stroke-linejoin="round"/>
<path d="M88.0692 67.4632H101.345V80.872C101.345 88.2286 95.3816 94.1923 88.025 94.1923C80.6723 94.1923 74.7047 88.2105 74.7047 80.8499C74.7047 73.465 80.6921 67.4632 88.0692 67.4632Z" stroke="black" stroke-width="4.2062" stroke-linejoin="round"/>
<path d="M101.311 13.7664H114.587C121.968 13.7664 127.952 19.7499 127.952 27.131C127.952 34.512 121.968 40.4956 114.587 40.4956H101.311V13.7664Z" stroke="black" stroke-width="4.2062" stroke-linejoin="round"/>
<circle cx="116.687" cy="55.8413" r="11.2628" stroke="black" stroke-width="4.2062" stroke-linejoin="round"/>
<rect x="1.94487" y="82.732" width="39.0588" height="27.887" rx="5.5" transform="rotate(-11.9881 1.94487 82.732)" fill="#FFC60B" stroke="black" stroke-width="3"/>
<path d="M132.856 13.5872L145.208 4.30428" stroke="black" stroke-width="3" stroke-linecap="round"/>
<path d="M134.728 2.81797L143.674 15.1213" stroke="black" stroke-width="3" stroke-linecap="round"/>
<circle cx="184.175" cy="77.8531" r="11.6561" transform="rotate(-32.0808 184.175 77.8531)" fill="#00D47B"/>
<circle cx="184.112" cy="77.7528" r="5.66289" transform="rotate(-32.0808 184.112 77.7528)" fill="#00D47B" stroke="black" stroke-width="3"/>
<path d="M154.8 96.1263L179.05 80.9261" stroke="black" stroke-width="3" stroke-linecap="round"/>
<mask id="path-17-inside-1_519_1330" fill="white">
<rect x="143.058" y="103.487" width="16.6516" height="16.6516" rx="1.66516" transform="rotate(-77.0808 143.058 103.487)"/>
</mask>
<rect x="143.058" y="103.487" width="16.6516" height="16.6516" rx="1.66516" transform="rotate(-77.0808 143.058 103.487)" fill="white" stroke="black" stroke-width="6" mask="url(#path-17-inside-1_519_1330)"/>
</svg>
