<svg width="169" height="159" viewBox="0 0 169 159" fill="none" xmlns="http://www.w3.org/2000/svg">
<path d="M8.84826 39.6619C8.7514 38.8054 9.66043 38.1956 10.4162 38.6101L25.7986 47.0458C26.6691 47.5232 26.4685 48.8274 25.4947 49.0211L17.7849 50.5546C17.507 50.6099 17.2626 50.7738 17.1061 51.01L12.7625 57.5626C12.2139 58.3901 10.9311 58.0811 10.8195 57.0945L8.84826 39.6619Z" fill="#00D47B" stroke="black" stroke-width="3"/>
<path d="M20.6865 55.1138C29.3856 64.9004 20.6865 64.9005 20.6865 72.5122C20.6865 78.6016 26.7276 86.89 29.7481 90.273" stroke="black" stroke-width="3" stroke-linecap="round"/>
<path d="M93.6212 4.6986C94.3238 3.64046 95.9274 3.81406 96.3872 4.99805L105.746 29.0947C106.275 30.4585 104.813 31.7397 103.531 31.0353L93.3793 25.4579C93.0133 25.2568 92.5822 25.2101 92.1817 25.3282L81.0708 28.6039C79.6675 29.0176 78.5131 27.453 79.3223 26.2342L93.6212 4.6986Z" fill="#E09EFF" stroke="black" stroke-width="3"/>
<path d="M92.1821 31.6133C89.4032 32.3383 83.918 35.1656 84.208 40.675C84.5705 47.5619 91.4577 46.8369 87.8328 54.4487C84.933 60.5382 81.7917 63.2687 80.5835 63.8728" stroke="black" stroke-width="3" stroke-linecap="round"/>
<path d="M53.4834 67.314C53.7228 66.0666 55.269 65.6074 56.1504 66.5219L74.0894 85.1344C75.1047 86.1878 74.2505 87.9345 72.7957 87.7799L61.2778 86.556C60.8626 86.5118 60.4469 86.6353 60.1231 86.8989L51.1394 94.2116C50.0048 95.1352 48.3357 94.1378 48.6114 92.7011L53.4834 67.314Z" fill="#33CFFF" stroke="black" stroke-width="3"/>
<path d="M61.2102 91.8423C62.8775 96.7876 68.0918 95.6489 67.3108 102.091C66.5298 108.533 60.0418 107.336 59.2582 116.731C58.6415 124.126 64.1384 128.432 64.1385 133.812" stroke="black" stroke-width="3" stroke-linecap="round"/>
<path d="M156.163 32.4893C157.116 32.0363 158.183 32.846 158.004 33.8859L154.36 55.0508C154.154 56.2487 152.564 56.5355 151.953 55.4852L147.109 47.1701C146.934 46.8704 146.647 46.6527 146.312 46.5654L136.997 44.1448C135.821 43.8391 135.668 42.231 136.766 41.7092L156.163 32.4893Z" fill="#FF4D5B" stroke="black" stroke-width="3"/>
<path d="M143.698 51.3164C141.47 53.0716 137.016 57.5865 135.799 61.2401C133.064 69.4494 127.329 64.4888 123.04 68.3284C119.099 71.857 120.272 75.6868 120.407 76.4294" stroke="black" stroke-width="3" stroke-linecap="round"/>
<path d="M102.745 95.8036C103.252 94.8779 104.591 94.9079 105.056 95.8554L114.511 115.139C115.046 116.23 113.926 117.394 112.815 116.902L104.016 113.005C103.699 112.864 103.339 112.856 103.016 112.982L94.0505 116.481C92.9182 116.923 91.8518 115.71 92.4352 114.644L102.745 95.8036Z" fill="#FFC60B" stroke="black" stroke-width="3"/>
<path d="M103.363 118.45C102.167 123.471 101.784 134.804 109.818 139.968C119.86 146.424 120.338 154.075 120.099 156.944" stroke="black" stroke-width="3" stroke-linecap="round"/>
</svg>
