<svg width="201" height="159" viewBox="0 0 201 159" fill="none" xmlns="http://www.w3.org/2000/svg">
<path d="M25.2772 39.5631C25.1804 38.7065 26.0894 38.0967 26.8452 38.5112L42.2275 46.9469C43.0981 47.4243 42.8975 48.7286 41.9237 48.9223L34.2139 50.4557C33.936 50.511 33.6916 50.675 33.535 50.9112L29.1915 57.4637C28.6429 58.2913 27.36 57.9822 27.2485 56.9957L25.2772 39.5631Z" fill="#00D47B" stroke="black" stroke-width="3"/>
<path d="M37.1155 55.0148C45.8146 64.8014 37.1155 64.8015 37.1155 72.4132C37.1155 78.5026 43.1565 86.791 46.1771 90.174" stroke="black" stroke-width="3" stroke-linecap="round"/>
<path d="M110.05 4.59973C110.753 3.54158 112.356 3.71519 112.816 4.89917L122.175 28.9958C122.704 30.3596 121.242 31.6408 119.96 30.9364L109.808 25.359C109.442 25.1579 109.011 25.1113 108.611 25.2294L97.4997 28.505C96.0965 28.9187 94.942 27.3541 95.7513 26.1353L110.05 4.59973Z" fill="#E09EFF" stroke="black" stroke-width="3"/>
<path d="M108.611 31.5144C105.832 32.2394 100.347 35.0667 100.637 40.5762C100.999 47.463 107.887 46.7381 104.262 54.3498C101.362 60.4393 98.2206 63.1699 97.0125 63.774" stroke="black" stroke-width="3" stroke-linecap="round"/>
<path d="M69.9124 67.2152C70.1517 65.9678 71.6979 65.5087 72.5793 66.4232L90.5184 85.0356C91.5337 86.089 90.6795 87.8357 89.2247 87.6811L77.7068 86.4572C77.2915 86.4131 76.8759 86.5365 76.552 86.8001L67.5684 94.1128C66.4337 95.0364 64.7647 94.0391 65.0404 92.6023L69.9124 67.2152Z" fill="#33CFFF" stroke="black" stroke-width="3"/>
<path d="M77.6391 91.7433C79.3064 96.6886 84.5207 95.5499 83.7397 101.992C82.9588 108.434 76.4707 107.237 75.6872 116.632C75.0705 124.027 80.5674 128.333 80.5675 133.713" stroke="black" stroke-width="3" stroke-linecap="round"/>
<path d="M172.591 32.3904C173.545 31.9374 174.612 32.7471 174.433 33.787L170.789 54.952C170.583 56.1498 168.993 56.4366 168.382 55.3863L163.538 47.0712C163.363 46.7715 163.076 46.5538 162.741 46.4666L153.426 44.0459C152.25 43.7402 152.097 42.1321 153.195 41.6103L172.591 32.3904Z" fill="#FF4D5B" stroke="black" stroke-width="3"/>
<path d="M160.127 51.2175C157.899 52.9728 153.445 57.4876 152.228 61.1412C149.493 69.3505 143.758 64.3899 139.469 68.2295C135.528 71.7581 136.701 75.5879 136.836 76.3305" stroke="black" stroke-width="3" stroke-linecap="round"/>
<path d="M119.174 95.7047C119.681 94.779 121.02 94.8091 121.485 95.7565L130.94 115.04C131.475 116.131 130.355 117.295 129.243 116.803L120.445 112.906C120.128 112.765 119.768 112.757 119.445 112.883L110.479 116.382C109.347 116.824 108.281 115.611 108.864 114.545L119.174 95.7047Z" fill="#FFC60B" stroke="black" stroke-width="3"/>
<path d="M119.792 118.351C118.596 123.372 118.213 134.705 126.247 139.869C136.289 146.325 136.767 153.976 136.528 156.845" stroke="black" stroke-width="3" stroke-linecap="round"/>
</svg>
